<mxfile modified="2023-08-31T10:39:15.099Z" host="app.diagrams.net" agent="Mozilla/5.0 (Windows NT 10.0; Win64; x64) AppleWebKit/537.36 (KHTML, like Gecko) Chrome/116.0.0.0 Safari/537.36" etag="S5fiopbl2TwIL6xY7r-w" version="21.6.7" type="github">
  <diagram id="WI9T0HZ2pTsCkuznbFz-" name="Page-1">
    <mxGraphModel dx="1134" dy="1444" grid="0" gridSize="10" guides="1" tooltips="1" connect="1" arrows="1" fold="1" page="1" pageScale="1" pageWidth="1169" pageHeight="827" math="0" shadow="0">
      <root>
        <mxCell id="0" />
        <mxCell id="1" parent="0" />
        <mxCell id="ggcAxKrhVkJov2pQKjYs-7" value="" style="edgeStyle=orthogonalEdgeStyle;rounded=0;orthogonalLoop=1;jettySize=auto;html=1;" edge="1" parent="1" source="ggcAxKrhVkJov2pQKjYs-3" target="ggcAxKrhVkJov2pQKjYs-6">
          <mxGeometry relative="1" as="geometry" />
        </mxCell>
        <mxCell id="ggcAxKrhVkJov2pQKjYs-3" value="" style="shape=image;verticalLabelPosition=bottom;labelBackgroundColor=#ffffff;verticalAlign=top;aspect=fixed;imageAspect=0;image=data:image/svg+xml,PHN2ZyB4bWxuczpjYz0iaHR0cDovL2NyZWF0aXZlY29tbW9ucy5vcmcvbnMjIiB4bWxuczpkYz0iaHR0cDovL3B1cmwub3JnL2RjL2VsZW1lbnRzLzEuMS8iIHhtbG5zOmlua3NjYXBlPSJodHRwOi8vd3d3Lmlua3NjYXBlLm9yZy9uYW1lc3BhY2VzL2lua3NjYXBlIiB4bWxuczpyZGY9Imh0dHA6Ly93d3cudzMub3JnLzE5OTkvMDIvMjItcmRmLXN5bnRheC1ucyMiIHhtbG5zOnNvZGlwb2RpPSJodHRwOi8vc29kaXBvZGkuc291cmNlZm9yZ2UubmV0L0RURC9zb2RpcG9kaS0wLmR0ZCIgeG1sbnM6c3ZnPSJodHRwOi8vd3d3LnczLm9yZy8yMDAwL3N2ZyIgeG1sbnM9Imh0dHA6Ly93d3cudzMub3JnLzIwMDAvc3ZnIiB4bWxuczp4bGluaz0iaHR0cDovL3d3dy53My5vcmcvMTk5OS94bGluayIgdmVyc2lvbj0iMS4xIiBpZD0ic3ZnMTc1NjcxIiBpbmtzY2FwZTp2ZXJzaW9uPSIwLjkyLjMgKDI0MDU1NDYsIDIwMTgtMDMtMTEpIiBzb2RpcG9kaTpkb2NuYW1lPSJnaXRodWIuc3ZnIiB4PSIwcHgiIHk9IjBweCIgdmlld0JveD0iMCAwIDQ1LjI3IDQ1LjI5IiBzdHlsZT0iZW5hYmxlLWJhY2tncm91bmQ6bmV3IDAgMCA0NS4yNyA0NS4yOTsiIHhtbDpzcGFjZT0icHJlc2VydmUiPiYjeGE7PHNvZGlwb2RpOm5hbWVkdmlldyBib3JkZXJjb2xvcj0iIzY2NjY2NiIgYm9yZGVyb3BhY2l0eT0iMSIgZml0LW1hcmdpbi1ib3R0b209IjAiIGZpdC1tYXJnaW4tbGVmdD0iMCIgZml0LW1hcmdpbi1yaWdodD0iMCIgZml0LW1hcmdpbi10b3A9IjAiIGdyaWR0b2xlcmFuY2U9IjEwIiBndWlkZXRvbGVyYW5jZT0iMTAiIGlkPSJuYW1lZHZpZXcxNzU2NzMiIGlua3NjYXBlOmN1cnJlbnQtbGF5ZXI9InN2ZzE3NTY3MSIgaW5rc2NhcGU6Y3g9IjMwLjE3ODAyNSIgaW5rc2NhcGU6Y3k9IjMwLjE5NDMxOSIgaW5rc2NhcGU6cGFnZW9wYWNpdHk9IjAiIGlua3NjYXBlOnBhZ2VzaGFkb3c9IjIiIGlua3NjYXBlOndpbmRvdy1oZWlnaHQ9IjEwMTciIGlua3NjYXBlOndpbmRvdy1tYXhpbWl6ZWQ9IjEiIGlua3NjYXBlOndpbmRvdy13aWR0aD0iMTkyMCIgaW5rc2NhcGU6d2luZG93LXg9Ii04IiBpbmtzY2FwZTp3aW5kb3cteT0iLTgiIGlua3NjYXBlOnpvb209IjEwLjA5NTE1OCIgb2JqZWN0dG9sZXJhbmNlPSIxMCIgcGFnZWNvbG9yPSIjZmZmZmZmIiBzaG93Z3JpZD0iZmFsc2UiPiYjeGE7CTwvc29kaXBvZGk6bmFtZWR2aWV3PiYjeGE7PGcgaWQ9ImcxNzU2NjkiIHRyYW5zZm9ybT0idHJhbnNsYXRlKC05LjU2MjU0MTcsLTkuNTYxMzEpIj4mI3hhOwk8dGl0bGUgaWQ9InRpdGxlMTc1NjU5Ij5QYWdlLTE8L3RpdGxlPiYjeGE7CTxnIGlkPSJncm91cDIyNTAtMSIgdHJhbnNmb3JtPSJ0cmFuc2xhdGUoOS41NjMwOCwtOS4zNzg2OSkiPiYjeGE7CQk8dGl0bGUgaWQ9InRpdGxlMTc1NjYxIj5HaXRIdWI8L3RpdGxlPiYjeGE7CQk8ZyBpZD0ic2hhcGUyMjUxLTIiPiYjeGE7CQkJPHRpdGxlIGlkPSJ0aXRsZTE3NTY2MyI+U2hlZXQuMjI1MTwvdGl0bGU+JiN4YTsJCQk8cGF0aCBpZD0icGF0aDE3NTY2NSIgaW5rc2NhcGU6Y29ubmVjdG9yLWN1cnZhdHVyZT0iMCIgZD0iTTIyLjYzLDE4Ljk0QzEwLjE0LDE4Ljk0LDAsMjkuMzMsMCw0Mi4xNSAgICAgYy0wLjA3LDkuODksNi4xNSwxOC43MywxNS40OCwyMi4wMWMxLjEzLDAuMjIsMS41NC0wLjUsMS41NC0xLjExYzAtMC42MiwwLTIuMDEsMC0zLjk1Yy02LjI5LDEuNDEtNy42Mi0zLjExLTcuNjItMy4xMSAgICAgYy0xLjAzLTIuNjgtMi41MS0zLjQtMi41MS0zLjRjLTIuMDYtMS40MSwwLjE1LTEuNDEsMC4xNS0xLjQxYzIuMjcsMC4xNiwzLjQ3LDIuMzksMy40NywyLjM5YzIuMDIsMy41NCw1LjMsMi41Miw2LjU4LDEuOTMgICAgIGMwLjEtMS4xNywwLjYtMi4yNiwxLjQyLTMuMUMxMy40OCw1MS44MSw4LjIsNDkuODIsOC4yLDQwLjkyYy0wLjA0LTIuMjksMC43OS00LjUxLDIuMzItNi4yMmMtMC42OS0yLTAuNjEtNC4xOSwwLjIyLTYuMTQgICAgIGMwLDAsMS45MS0wLjYyLDYuMjMsMi40YzMuNy0xLjA0LDcuNjItMS4wNCwxMS4zMiwwYzQuMzItMyw2LjIyLTIuMzcsNi4yMi0yLjM3YzAuODMsMS45NSwwLjkxLDQuMTQsMC4yMiw2LjE0ICAgICBjMS41MywxLjcsMi4zNywzLjkzLDIuMzMsNi4yMmMwLDguOTEtNS4yOSwxMC44OC0xMC4zMywxMS40NWMwLjgxLDAuNzEsMS41MywyLjEyLDEuNTMsNC4zYzAsMy4xMSwwLDUuNjEsMCw2LjM3ICAgICBjMCwwLjYyLDAuNDEsMS4zNCwxLjU2LDEuMTJjOS4zMy0zLjMsMTUuNTMtMTIuMTUsMTUuNDUtMjIuMDRDNDUuMjcsMjkuMzMsMzUuMTMsMTguOTQsMjIuNjMsMTguOTR6Ii8+JiN4YTsJCTwvZz4mI3hhOwk8L2c+JiN4YTs8L2c+JiN4YTs8L3N2Zz4=;" vertex="1" parent="1">
          <mxGeometry x="100" y="-325" width="50" height="50" as="geometry" />
        </mxCell>
        <mxCell id="ggcAxKrhVkJov2pQKjYs-10" value="" style="edgeStyle=orthogonalEdgeStyle;rounded=0;orthogonalLoop=1;jettySize=auto;html=1;" edge="1" parent="1" source="ggcAxKrhVkJov2pQKjYs-4" target="ggcAxKrhVkJov2pQKjYs-9">
          <mxGeometry relative="1" as="geometry" />
        </mxCell>
        <mxCell id="ggcAxKrhVkJov2pQKjYs-4" value="" style="image;sketch=0;aspect=fixed;html=1;points=[];align=center;fontSize=12;image=img/lib/mscae/Azure_Repos.svg;" vertex="1" parent="1">
          <mxGeometry x="240" y="-436" width="40.5" height="45" as="geometry" />
        </mxCell>
        <mxCell id="ggcAxKrhVkJov2pQKjYs-8" value="" style="edgeStyle=orthogonalEdgeStyle;rounded=0;orthogonalLoop=1;jettySize=auto;html=1;" edge="1" parent="1" source="ggcAxKrhVkJov2pQKjYs-6" target="ggcAxKrhVkJov2pQKjYs-4">
          <mxGeometry relative="1" as="geometry" />
        </mxCell>
        <mxCell id="ggcAxKrhVkJov2pQKjYs-6" value="" style="image;sketch=0;aspect=fixed;html=1;points=[];align=center;fontSize=12;image=img/lib/mscae/Azure_DevOps.svg;" vertex="1" parent="1">
          <mxGeometry x="100" y="-500" width="50" height="50" as="geometry" />
        </mxCell>
        <mxCell id="ggcAxKrhVkJov2pQKjYs-12" value="" style="edgeStyle=orthogonalEdgeStyle;rounded=0;orthogonalLoop=1;jettySize=auto;html=1;" edge="1" parent="1" source="ggcAxKrhVkJov2pQKjYs-9" target="ggcAxKrhVkJov2pQKjYs-11">
          <mxGeometry relative="1" as="geometry" />
        </mxCell>
        <mxCell id="ggcAxKrhVkJov2pQKjYs-9" value="" style="image;sketch=0;aspect=fixed;html=1;points=[];align=center;fontSize=12;image=img/lib/mscae/Azure_Pipelines.svg;" vertex="1" parent="1">
          <mxGeometry x="440" y="-500" width="47.5" height="47.5" as="geometry" />
        </mxCell>
        <mxCell id="ggcAxKrhVkJov2pQKjYs-61" style="edgeStyle=orthogonalEdgeStyle;rounded=0;orthogonalLoop=1;jettySize=auto;html=1;" edge="1" parent="1" source="ggcAxKrhVkJov2pQKjYs-11" target="ggcAxKrhVkJov2pQKjYs-28">
          <mxGeometry relative="1" as="geometry" />
        </mxCell>
        <mxCell id="ggcAxKrhVkJov2pQKjYs-11" value="" style="image;sketch=0;aspect=fixed;html=1;points=[];align=center;fontSize=12;image=img/lib/mscae/Azure_Pipelines.svg;" vertex="1" parent="1">
          <mxGeometry x="660" y="-501.25" width="50" height="50" as="geometry" />
        </mxCell>
        <mxCell id="ggcAxKrhVkJov2pQKjYs-19" value="" style="image;sketch=0;aspect=fixed;html=1;points=[];align=center;fontSize=12;image=img/lib/mscae/Notification.svg;" vertex="1" parent="1">
          <mxGeometry x="230" y="-113.37000000000002" width="44.25" height="44.25" as="geometry" />
        </mxCell>
        <mxCell id="ggcAxKrhVkJov2pQKjYs-68" style="edgeStyle=orthogonalEdgeStyle;rounded=0;orthogonalLoop=1;jettySize=auto;html=1;entryX=0.995;entryY=0.797;entryDx=0;entryDy=0;entryPerimeter=0;" edge="1" parent="1" source="ggcAxKrhVkJov2pQKjYs-28" target="ggcAxKrhVkJov2pQKjYs-30">
          <mxGeometry relative="1" as="geometry" />
        </mxCell>
        <mxCell id="ggcAxKrhVkJov2pQKjYs-28" value="" style="shape=image;verticalLabelPosition=bottom;labelBackgroundColor=default;verticalAlign=top;aspect=fixed;imageAspect=0;image=data:image/png,iVBORw0KGgoAAAANSUhEUgAAA4YAAAQACAYAAAC9PUdGAAAABGdBTUEAALGPC/xhBQAAACBjSFJNAAB6JgAAgIQAAPoAAACA6AAAdTAAAOpgAAA6mAAAF3CculE8AAAAB3RJTUUH5godDycnkJmF7wAAAAZiS0dEAAAAAAAA+UO7fwAAc0dJREFUeNrs3QmUpGdd7/HZJ3smewgkDCEkXZ2tMCGpqueFsG+yKcqu1vMOiIKoN6IIiHhYlEVRFAmrCAJdPQTGBaKAEBYRjOz7lrDUU10ZsnT22TLj/XfoifEK3JBkku5+P99zPmfuvefce81Md73P71S99S7r/8xlB/fv9YMjcyqrlkmSJEmSmle/Gj4kV8NRDMMc1sX/3kCUJEmSpIYNw4fWVfmvsD2G4UdiJD68nhuInfFKfzuSJEmS1KxhuNvlMQxfk9PojDrNHNhvz67wtyRJkiRJzRqGc67PVfl6nUbPz92Zk3Mq+/mbkiRJkqRmDcPdtsQo/HiMxA1hfb9X1vgbkyRJkqRmDcPdLo1h+PY6lUfVvdGRPl4qSZIkSc0bhrt9J8bhy3Ma3beuRuv87UmSJElS84bhDd9eGj4dnpNTOSn+76/1tyhJkiRJzRqGu12dq7IpPDWn0TEebyFJkiRJzRuGu43Dm+tUfi6fefFB/fbscn+rkiRJktSsYbjbl3Iqr4r/9+4XVvmblSRJkqTmDcM528K/x0B8bvy/ew9/u5IkSZLUvGG422Xhn+pq+NR+Z3yQv2VJkiRJat4wnLPrhsdbVOWddTV6SL89u5e/bUmSJElq1jDcbUf4fK6Gr82p/Iy/cUmSJElq3jDc/e7h1eHjuSpnx/+f6/3NS5IkSVKzhuFu14fN4V/qVJ7Q74wP9C8gSZIkSc0ahjf99tLv5qq8rU4z9+23Z9f6l5AkSZKkZg3D3R8vvS58M/dGL93QnVnvX0OSJEmSmjUMbzoQrw3/mVPZ0O8Vj7eQJEmSpIYNw912hi11Kh+ouzP36bdnV/vXkSRJkqRmDcMb30HM1fDqcE78z3b3sDL4h5IkSZKkBg3DG+VUNueq/Ga4U783s6rfGfsHkyRJkqQmDcMbB2JVPp/T6JF1Kofl0y5d2W/P+oeTJEmSpCYNwxulMp27M92ciucfSpIkSVIjh+EN7x4Or45h+IIwEf+z7+tfUJIkSZIaNgxv/IKaVL6Yq/L0uhreo98Zr/EvKUmSJEnNGoa7bY1h+L46jX6hrkZH99uzK/2LSpIkSVKzhuFul8UwfE3ujR6UUznMv6okSZIkNW8Yztkeo/DL8ecLc1XOiP+uA/zrSpIkSVKzhuFuV8cw/HD8+Vt1b3SCj5dKkiRJUvOG4W6b61TenlN5Ql2N7uxfWpIkSZKaNwzn7AjfCq+pe6MHb+jOeP6hJEmSJDVsGO62pU7lgvjzxTmV0/u9sta/vCRJkiQ1axjudnn4UIzEZ+XO+M799uwKPwGSJEmSDMNmDcPdvp+r8q74b39C2NdPgSRJkiTDsHnDcPf9h9/Iqfxt/B2cGXx7qSRJkiTDsKG2hM/mqryq3x0f5SdCkiRJkmHYXFeGC+pq9JR+e9bHSyVJkiQZhg1WcjX8l5zK/f10SJIkSTIMm2t7+E6Mw9fH38+knxJJkiRJhmEz7Zq///AbdTV8Xr8zPtRPiyRJkiTDsLkD8epcDT9Sp5mf77dn9/ZTI0mSJMkwbO5AvCKnsjF0clVW9nvFD5AkSZIkw7ChRjEMXxwD8di6N1rdb8/6QZIkSZJkGDbUF2MY9nN3fGRdjVb7aZIkSZJkGDbT3BfU/HMMw4fFSDxkQ3dmpZ8qSZIkSYZhM11ep9Ffh25Oo/37nfFyP12SJEmSDMNm+lYMw9+qUzkxn7F5L/cfSpIkSTIMm+tDMRCfHH+/dw8r/KRJkiRJMgwbKFfD68I7ciqPiL/nQ/20SZIkSTIMmzoQU7k0V+UldTWs+p3xPn7qJEmSJBmGzbQz/Eedytl1NTqp3571eAtJkiRJhmGDH2/xnpzK08J6P4GSJEmSDMNm2hUuDm+Kcfjz8W9wmJ9ESZIkSYZhM20PXw1/Wqfi/kNJkiRJhmGDXRXOz1V5Tp1m3H8oSZIkyTBs8JfTjOtU/jH3RnlDd+YIP52SJEmSDMPmfrz02+EtOZWH9HtlPz+lkiRJkgzDZro2fLlO5c/r7szJ/fbsSj+tkiRJkgzDZroiV+WT8edz62rk46WSJEmSDMMG3394SU7lw/Hv9Yiwl59cSZIkSYZhM+0Io1yVjf3ezGS/M17hJ1iSJEmSYdhM2+a/wfSP+6ddepCfYkmSJEmGYXNtydXwwpzKY/0kS5IkSTIMm2vXDQMxlQ/Gv+WZdTVc3u+M/WBLkiRJMgyb+4iL4Rtzd+budRqt7rdnl/sJlyRJkmQYNtOorka/nc+8+C45lTV+yiVJkiQZhs20NUbhR8Mv5qocGv/Oq/20S5IkSTIMm+myGIZvCw+sUzm43xmv9FMvSZIkyTBspu/EMHxJTuX0uhrt5ydfkiRJkmHY3Ocf/kf4tbo3Om5Dd2YvvwGSJEmSDMNmurpO5d3hcTmVo/u9sspvgiRJkmQYGkvNVHJVXhsD8eG5Mz7I4y0kSZIkw5Dm+kpO5QXxs3Bm8HgLSZIkyTCksY+3qMoHYyA+K34m7h5W+O2QJEmSDEOa6crw9hiJ/X5nvM5viCRJkmQY0lzfD6+pq9F9+u3ZtX5TJEmSJMOQZtoZ/i2n8tJwit8WSZIkyTCkua4K583ff3iM3xpJkiTJMKSZrg+j8K66Gj6h3xkf4LdHkiRJMgxppm3ha3nu/sM0U7n/UJIkSTIMaaZd899eekFO5Y/C8X6TJEmSJMOQ5n689LLwr7kqT42fpSP8RkmSJEmGIc20PWwO7657o7P67dnVfrMkSZIkw5Bm2pqr8p38w+cf3sNvlyRJkmQY0tz7D7fkVL5R90a/taE7c7DfMkmSJMkwpLkDcVuuyidzb3Sffmfs46WSJEmSYUijpfKO3BlP9HujNfEz5xdPkiRJMgxpolwNr4qft5fkVA6PP72DKEmSJBmGNHYgpjKMkfiLdTU8rN8Zr/JbKEmSJBmGNPYZiMN/zGl0Vl2NDu63Z1f4bZQkSZIMQ5rpqhiGr8i90Rk5lQP9RkqSJEmGIc20M1fDb8cwPDtMxs/kvn4zJUmSJMOQZrouhuH5uSr9OpW7ecSFJEmSZBjSXJtjGL45RuIj6zRzp357dqXfVEmSJMkwpHl2hK/V6Yb7D+8XI3Gd31ZJkiTJMKShHy8Nn8xV+b0Yhyf3e2Wt31pJkiTJMKSZLg1/X6fy1Lo7c7THW0iSJEmGIc31vZzKG+PPx9bVyOMtJEmSJMOQhtoevhwD8c/i5/f04NtLJUmSJMOQhro2fDhX5Q/6vZmj+53xcr/RkiRJkmFIM10S3lenkvs/c9m+fqslSZIkw5DmuihXw6n4mX6I32xJkiTJMMT9h6+Mn+0Jv+GSJEmSYUgz7QpXhE/V1fDsfmd8iN90SZIkyTCkmXbO33/4r3UaParfnt3bb7wkSZJkGNJMO8Jo7v7DnMrpfuslSZIkw5Dm2ha+lqvygvi5X++3X5IkSTIMae79h3MD8YI6lSf3O+MDvApIkiTJMDQMae5AvDZX5Z/qatSre6NVG7ozy70iSJIkyTCEBsqpXB7D8M9DK/7Xa/u9YiBKkiTJMIRGDsSqfDOG4bPC+twZr+63Z71ASJIkyTCERkrl47k3emQ/lSPi92OFVwlJkiQZhtDIdw+H14Y351S68TuyLvh4qSRJkgxDaOj9hz/IVXluuGe/M17rFUOSJEmGITT3/sMv1Wn0y3Uqx/fbs6u8ckiSJMkwhGa6PobhuTmVnw9HefWQJEmSYQgNff5hroab488/i3F4//j9OdiriCRJkgxDaKbtuSpfiD9fUFfDM/ud8d5eTSRJkmQYQjNdEz4UnlWnmRPcfyhJkiTDEJpr7uOlb8+90RNzKnfyyiJJkiTDEJppW/h6+MtclQfNPf/QK4wkSZIMQ2imq8MF4cV1b3Rivz270iuNJEmSDENopktyVc4Lv1FXI4+3kCRJkmEIjX32YVWGOZV31b3Rz23ozuzvVUeSJEmGITT3/sNv5Kq8vp/KGf1eWe3VR5IkSYYhNPf+wy/XqTw/n7H58H57drlXIUmSJBmG0EyX5mr4yfj964cVXokkSZJkGEIz7Qw/yKl8MH4PT/NqJEmSJMMQmmtHmMlVeWO/Mz7Sq5IkSZIMQ2iu7eGiuhpt6Ldn9/XqJEmSJMMQmmtrroYX5FQeHFbG76gvqJEkSZJhCE39BtMYhlMxEk+vU1nb74wNREmSJBmG0FDfveHxFr3RcXWa2csjLiRJkmQYQjNty1X5ZJ1GOXdnjs6prPHqJUmSJMMQmumqGIXviZH48Pjz0H6vrPQqJkmSJMMQmmkY4/AVdSrdujtzgI+XSpIkyTCE5vpCTuU36zQ6pa5Ge3lFkyRJkmEIzbQlfDAG4lPq3uhuG7ozPl4qSZIkwxAaarZOo7fkqjy63505yOMtJEmSZBhCc11Up/LicO9+e9a3l0qSJMkwhAb7t5zK2fE7fopXOkmSJBmG0FzX5Kr8fQzEp8bv+lFe8SRJkmQYQjPtCuPwhroaPrLfGe/vlU+SJEmGITTTtrnHW4RX1mnmDPcfSpIkyTCE5ro6nJ9TeV64h1dBSZIkGYbQTDvD5vDuXJUnx+vAEV4NJUmSDEMHZWimreHb4S11b/SAfme8j1dFSZIkwxBo6LeXzt1/mKvy8ro3PqXfnl3l1VGSJMkwBJr58dLZnMqn6t7oGRu6M4d6hZQkSTIMgWa6PlySq/K+GIkP7/eKj5dKkiQZhkBDbZ8biHUqb82d8Qn99uwKr5iSJEmGIdDQ5x/majisq9FLw/5eNSVJkgxDoLl25FS+Fa8ZDwsr+52xF1BJkiTDEGiqXJWP5u5Mq05lbb89u9wrqSRJkmEINPQjpjEMX5XPvPhuOQaiV1NJkiTDEGimXbkafieG4VPDkfF6ssarqiRJkmEINNPWGIYfipH4mLoaHtHvjFd5dZUkSTIMgWa6PPxNTqOz6jRzsEdcSJIkGYZAc11Yp9ELcndmwqusJEmSYQg013U5lRd5lZUkSTIMgWZ7lVdZSZIkwxAwDCVJkmQYAoahJEmSDEPAMJQkSZJhCBiGkiRJMgwBw1CSJEmGIWAYSpIkyTAEDENJkiQZhoBhKEmSJMMQMAwlSZJkGAKGoSRJkgxDwDCUJEmSYQgYhpIkSTIMAcNQkiRJhiFgGEqSJMkwBAxDSZIkGYaAYShJkiTDEDAMb5Pqanhw7o3W9jtjL/SSJEk/ovb6TStSa3BQNTG1l2EILNVheE5OoyfU1ejO+V6XrOq3Z736S5IkzVe1Buu6ExvvGcPw9TEMH2gYAkt0GJZP//B/htE7c3fmATmVw1wCJElS4wfhxNQ+MQYnYhi+oJoczIRd8X/2UMMQWOLDsPxXjMLN4eW5KqfGa96BLgmSJKlpdSamVscYPDb8SgzDz8Yg3BH+6waGIdCEYThvVwzDz4Sz61Qm+53xXi4RkiRpqddev2llak3fKU0OHhWjcDqG4JU3DkLDEGjgMNxtWwzDf8qpPKWuRndzuZAkSUu1NDF9UIzCB1ST038aA/D7/2sQGoZAg4fh7ncPN8efb4qB+JAN3Rn3H0qSpCVTDL190+TgtNQa/H4Mv8/9j4+NGoaAYfi/7KhT+Vp4SQzFqt8r+7mUSJKkxdrcfYS9ycFxMfaeHj4QrvqJg9AwBAzD/+Ga8LEYiL9b90Yn99uzq1xaJEnSYmnueYTdiY1Hxsj7xfCWMLxZg9AwBAzDH+my8J6cyq/Ea+OdXWYkSdJCr9ua3qfXmr5vag1eHSPvy2H7TzUKDUPAMPyRrg8X5h/ef/jweI08wCVHkiQttHonblyVJqcnq9bg+Wly8PEYeNf+1IPQMAQMw/+vreGzMRBfmdPo9H5nvMYlSJIk3dG1129afsY93nVIjMFnxqj753DJLR6EhiFgGN5sV4aP33D/YWe8vt+eXeGSJEmS7oiqyekV4fEx5t75Ex8/YRgChuFtPgx3G+eqnJdTeULw7aWSJOn2HYUTU63UGrwuhtw3btF9hIYhYBjeZubuP/x2DMO3xmvnvYNvL5UkSXu0zsTUoVVr8MIYcJ8M192mg9AwBAzDW+W68PW6Gr6q3505pt8Zu2pJkqTbtPb6TXun1uApMdw+HC4Nu/bIKDQMAcPw1t9/mKvhBXU1elq/PevjpZIk6TYpTUx3YrBtnH8e4fV7bBAahoBheJvZGS7Jqbw/PNSlTJIk3dJioN09TQ5eMX8f4dY9PggNQ8AwvM3tmP+CmjfE6+opLm2SJOnm1pmYWle1Bs+Ikfb5+fsId91uo9AwBAzDPWJ7+N7c4y367dl9XeokSdKPq71+09rU2vigGGf/GraEnbfrIDQMAcNwj9uWq+Fn6mo093iL1Ru6M8td/iRJUoyw5VVrsDJNTJ+cWoM3xTC77HZ/h9AwBAzD2921MQz/fkNvVOWq7N3vlRUuiZIkNa/2+k3LuhPTq6rW1LExDJ8fg+zCO3QMGoaAYXiHuDiG4Z/GSDyp7o326rdnvYMoSVJDqianV/YmNh7Wa00/Zv55hP+1oBiGgGF4u/t8nUZP6/dGd43X37UulZIkLd26rekVMQbXxfhK4dw99oB6wxAwDBfdMJyzNVfD83JVHpNTOSJeh1e5dEqStHTqnbhxWZqc3i+1Bu3wJ+GSBTkIDUPAMFwQrohx+Npwv5xGB/U7Y/cfSpK0yGuv37QqhuDxMQx/o2oNvrKgB6FhCBiGC8pFOZU/qKtRO5+5eR/3H0qStDiLIXh0rzX9qBiG/7QoBqFhCBiGC9IHYyD+ajg+ePdQkqTFMggnpg6OMfiAGFmvC1cuqlFoGAKG4cKTq+GW+PMdMQwfG6/Pd3KplSRp4daZmNq7ag3OmHv8RAzD79xhD6g3DAHDcGkNw5sY5aq8uq6GD+53xvu59EqStHC64T7CyekT0uTgmTGszg9bFuUgNAwBw3DR+FxO5ffranRavz27xqVYkqQ7tjQxfefUmv6lGFTvDJcv6kFoGAKG4aJyVXhf7o2eGSPxHi7JkiTd/sV4OihNDh4eQ+o1YfF+bNQwBAzDRW1nmLnh/sOqPC5eu490iZYkac/XmZjaqzc5OD0G1IvCZxf9x0YNQ8AwXBK2ha+Fc+re6L4+XipJ0p6pvX7Tyt7ExuNiOP1m+Jdw2ZIbhIYhYBgueteEf89VeWFdjU52+ZYk6bar25pe12tNPy61Bu+K4fT9cP2SHYWGIWAYLomPl14SPpBT+bUN3ZmjXMolSbrl9U7cuFeanE5Va3BODKavhW1LehAahoBhuKTsCMOwMafRw/qd8d4u7ZIk3fza6zet6JywcX2aHPxxDKXPh6sbMQgNQ8AwXJK2hG/Wqby67s6c0m/PrnKplyTpJ1dNTu8b5u4j/NiSvo/QMAQMw8a5Klfl8/H6/jzfXipJ0o8ZhBNTy0OVWoP3xzjavOTvIzQMAcOwkebuP5zNqXwq/GK81u/jCCBJ0g/rTEzdqWoN3hqjaBh2NHYQGoaAYdgY14fL62q4MfdGp/Q745WOA5KkptZev2m/1Bo8O8bQd8PWxg9CwxAwDBtne7iyrkYvyqdfeli/Pet0IElqVGli+qExgj4drjUGDUPAMGz8O4i5Gv4gp/IrYWVcA5Y7KkiSlmKdiallVWuwIkbPPdPkDc8jvCrsMgQNQ8Aw5L/tmrv/MK4BD6xT2avfGa9whJAkLYXa6zctT63p1b3W1PoYhq+I4XOJ8WcYAoYhP9m1MQzPyb3RyXU12qffnvUOoiRp0ZYmplefefzGO8Uw3BCD56tGn2EIGIaG4U/xDaa5Gl4Uw/B5uTO+R05lb0cLSdJiKobNqqo1ODgG4c+m1uC9MXauMfgMQ8AwNAxvmW3zj7fo56oc1e+V1Y4akqSFXGdiakVvcnBgjMIq/HWMnBlDzzAEDEPD8LYxG8PwHTEQH1r3Rof327PuP5QkLbx3CSen906Tg1PD78e4+YqBZxgChqFhuGd8v07lZTmNOnU1WucIIklaCHVv+GKZ6fUxaJ4SPux5hIYhYBgahrfP8w8/G55d90Ynb+jO7ONIIkm6I+qduHFFmpw+omoNHpkmB2+NQXOFUWcYAoahYXj7uqZO5byQcxrdtd8Zr3REkSTdHrXXb1p2r+PO3Se1BveOEfPK8B1jzjAEDEPD8I41Dm+IgfjI3Bkf4vEWkqQ9WdUazGmn1vTZMWA+YcQZhoBhaBguLF/KqfxJXEPOCns5ukiSbvNRODF1VGoN6hgu/xS2GHCGIWAYGoYL9fEWVfl4DMTfiWvJRPDxUknSra4zMbV/1Rr8QgyW14dLDTfDEDAMDcPF4dLwnroabuh3Zw51pJEk3ZLa6zetqSanOzFUXh6+HnYabYYhYBgahovPd8Pb6mr04H571sdLJUk3uzQxfUJqDZ4XI+VD4TpjzTAEDEPDcPH7dK6Gr86pnOaoI0n6ScUguVOaHGyIcbIpXBJ2GWqGIWAYGoZLx7Xh/FyV347rzN0cfSRJN60zMbVvDMIHxyh5y/zjJ7YbaIYhYBgahkvTzjAT3lun8sR+Z7zOUUiSml17/abVqbXxZ+bvI/xsuMYwMwwBw9AwbIbt4Vu5Km+p08z9++3ZtY5GktS80sT00ak1+N0w9zzCy325jGEIGIaGYfPsmv946Zdzb/QnG7ozxzkiSVIz6p24cb80Of2YqjV4b4yQH4TrjTHDEDAMDUMfL70ifCJX5en9XjnEkUmSlmbt9ZtWdiem22ly8LYYH6OwzQgzDAHD0DDkpq4Ps+Gf694Nj7dY4wglSUunanL68PCyGB0Xhi3Gl2EIGIaGIT/JjlyVzTfcf1iNJh2lJGmRD8KJqbXh51Nr8JX5QejxE4YhgGHIzX8HMadSwm/FdengnEbL+p2xE5YkLYLa6zct605MrQgnVq3BR+Y/MmoQGoYAhiG3XK7Kl2IYPir3RgfkMy9e0W/POnVJ0kJ9h7A1WH2v4849KrUG5xhYhiGAYchtL5Vzc3fmjH4q+8e1arnjlyQtoEE4MbU6TQ4OimF49vw3jRpXhiGAYcieevdweHV4VU7l2Lhe7e0oJkl3bJ2JqZUxBg+pWlOPimH4bzEqdhhWhiGAYcjtMxBT+WYMxA11NTy63xmvdjSTpNu39vpNK1Jrel1qDVIMw7+LMXG1QWUYAhiG3BF2xTB8f06jn62r0ZH99uxKRzVJ2vOlien9uydMn1pNTv/h/PMIDSnDEMAw5A53bQzD1+Te6H45lUMc2SRpzxRjYe+qNTguPD21Bv8eA2KrEWUYAhiGLCQ7czX8Xq7KH4R2XMv2d4STpNumzsTUqt7k4C4xCB8fzo3hcLnxZBgCGIYs6HcPYxh+ODyzTuWEfme81pFOkm7Fu4ST0wenycFDwl/FYPie0WQYAhiGLCaXxjB8Z07lCXU1uoujnST9dHVb0/v0WoPTYiQ8P3wubDeYDEMAw5DF6Prw7fAXdW/0gA3dmXWOepL0k+uduHF1mpw+vmoNnpEmB++PkXCNoWQYAhiGLAVb61QuiD9fkFM5vd8rnn8oSf9P7fWblndO2HhojMGnxDCYChcbSIahYQgYhixFs+H9MRJ/q+7OHNtvz65wFJSkZcuq1mBNeGCMwr+MUfAtwwjDEDAMaYJRrso743r3uODjpZKaOwgnpua0UmvwkhgDnwrbjCIMQ8AwpEl2hK/kVF4X170UfHuppEbVmZg6uGoNzo4R8M/uI8QwBAxDmm5L+FSuyp/0ezPH9jtjHy+VtKRrr9+0dzU5/fA4/G8MYyMIwxAwDOF/3n/40TqVZ+bTLj3Q0VHSUixNTN8rDv1vCF8K1xtAGIaAYQg/WsnV8LycygMcISUtleKQf2yaHLwwDvz/Ea41fDAMAcMQbt7zD78xf//hSY6UkhZrnYmpdVVr8NQ46J8fLgs7jR4MQ8Aw9PfPT+ea8KW6Gv5BvzM+zBFT0mKpvX7T2tSafkAc8N8ZSthh7GAYAoahYcgttytcGf6jrka/2G/P7uPIKWkhlyam5x4/8RdxuP922BJ2GToYhoBhaBhy29gZNudUpkPX0VPSQqt34sa5x088PQ71nzMIMQwBw9AwZM/ff/i9XJWXxfXy7o6ikhbAx0ZXd1vT94/D/IfDVvcRYhgChqFhyO37EdOv1an8er87c3hdjTz/UNLtVgzB5b3W9KpqcvqkOMRPeUA9hiFgGBqG3LG25qr8awzDh9S90b4bujMGoqQ9VmdialmvNVidWoP18ecL488fGDEYhoBhaBiycFxRp9Hrwuk5lf36vWIgSrotPy667F7HnbsyhuAR4eer1uCLxguGIWAYGoYsXBfmqjw3xuFk3Rnv1W/PLneklXRriyF4aHdi+j4xCt9ttGAYAoahYcji8ancGz2pn8pd47q6yrFW0i0ahBNT+6XJwWT1w8dPXG2wYBgChqFhyCKTq+F14Z05lQfHtfXQ4N1DSTerzsTU2hiDJ4RnxDD8qqGCYQgYhoYhi30gpnJprspLw7373fE+jrySflzt9ZtWVpPTx8QYfHyMwvfHAX27kYJhCBiGhiFL6h3EucdbjJ5VV6NWvz272hFY0k1LE9OHp9b0I2IYvj4O5lcYJxiGgGFoGLJ07Qzvyqn8criro7CkOIAfWLUGnfDiOJBf5AH1GIaAYWgY0gy7cjW8LP58XYzDR8R19zBHY6l5zd1HmCYHcw+o/50YhR/1kHoMQ8AwNAxpph313MdLq/Lyuhqe1e+4/1BqzLuEk9NHx+G7H94VLjFEMAwBw9AwhOvCx3JVfqdOMye5/1BaunVb0+t6rcHD4uD9unBhuN4IwTAEDEPDEG567+HF4T05lQ3haEdoaenUO3HjXmly+syqNfjjNDn4TBy8txofGIaAYWgYwo+zPVwY3pSr8si4Jh/sSC0t3trrN63oTkzfLcbgc+Kw/ZEwa3RgGAIYhnBzXRu+GP6s7o3u2W/PrnLElhZXVWuwf3hyHLI3hbGxgWEIYBjCLTWbq/KR8Ht1NTrGUVtaBINwYmpVSKk1+Ls4YH8r7DA0MAwBDEO4ta6fu/8wp3Je3Rs9cUN35kBHb2nh1ZmYWtadmDqmag1eHQfrL7iPEMMQwDCEPXX/4XdzVd4eI/He/V5Z4yguLYza6zftm1qDZ8WB+rPhKsMCwxDAMITb4/EWF9WpvDSfsfnO/fbscsdy6Y4rTUw/KA7SHwqbDQoMQwDDEG5vV+Vq+KW4bv968OU00u1/L+FJaXLwN3GI/r77CDEMAQxDuCPtClfmVC6I63fHUV26Xe4lPKxqDV4Yh+dvz99HuMuQwDAEMAxhIdh5w0CsyqDfGR/l6C7tkfsI90mt6cfFofkT4VqDEMMQwDCEhfwO4qV1Nfqt/umXHJxTWeE4L92qj4sur1qDVWliukqtwd/Pf7GMQYhhCGAYwuJ4BzFXwy/HMHxs2Deu7Ssd8aWf6t3BZb3W9JqqNXVyDMNXeUA9hiGAYQiL2TUxDDfFSDyrTmW/fmfsHUTp//cu4eT06u7ExqNiGD4tDshfMRIwDAEMQ1gqSgzDl+Q0OrlOM/t5xIX0v+u2plf1WoNDYxg+Mg7GH/SAegxDwxAwDGEp2p7nfg/S6Ddyd+b4nMrepoB0w7eMLk+twQHh3uH1cSieNQwwDA1DwDCEJny89LwYiY+LP4/q94pnIKqx9xGeefzGvWMMnhyeHYfhCw0CMAwBwxCaZibG4V/XqTyw7s4c7OOlatR9hK3BynB8ak3/ShyCP2IIgGEIGIbQdF/NqTwvp9GZdTXax2TQkh+FE1NHpNbgMXH4nQ7XGQFgGAKGIfBDW8PHYiD+et0bTWzozqw2H7QE7yXct2oN7hNeGcPwMod/MAwBwxD40a6sU5nOVXlSvzdzWL8z9vFSLYV7CVdXk9OnpsnB78WB99MO/WAYAoahfwO4eb4f/jxG4oP7P3OZby/Voi1NTB+bWtO/HgfdfwjbHPjBMAQMQ8MQfnr/mVP5ozgbnG5iaJHdR3h41Ro8OvxNHHIvCbsc9sEwBAxDwxBuuS25Ku+PgfjbcUY4xuTQQr+PME0OzoqD7Z+HL3mXEAxDwDA0DOG2sytcEt5RV8PH9zvjA0wQLbT7CFNr46lxoH1++Fi42uEeDEPAMDQMYc/YEb4WzqnT6N799uxak0R3dN3W9J16rcHT4jD7vrA57HSwB8MQMAwNQ9jzrg2fytXwj3MqLdNEd0S9EzfuX7UGPxuH2LeFi8IOB3owDAHD0DCE2//jpZeHD8Y4fGacH44yVXQ7fWx0VXdiup0mB38VB9ivekg9GIaAYWgYwsL4eOlM2Fin8vB+Z7yf6aI9VdUaHBGeHQfXC8KVDvBgGAKGoWEIC+zbS8M3clX+qu7NnNZvz642Y3SbDcKJqX1Sa/Bz4SNxaP2B+wjBMAQMQ8MQFvbHS6/OqXwxPD/cxaTRrakzMbWy1xqcWrUG747D6th9hGAYAoahYQiLx85wVa7KR2Mc/ly/V/Y1cfRT3ke47PS7n3tYag1eEYfUiz2PEAxDwDA0DGHxun7uHcQ6lXNzZ3xSvz270uTRzSlNTD8xDqffC1sd0sEwBAxDwxCWyDuIuRpeFn++uq5Gh8ZZY3mwfnTTj4zOfbHMijiM9tLk4KNxMN3ucA6GIWAYGoawROVURjESn5irckC/M15hEjX+I6PLq8npNd3W1PExDP82DqRbHMrBMAQMQ8MQmjIQq/Kp3Js5o05l/357drmJ1MiPi6498/h3HR3DcO7xE5sdxsEwBAxDwxCaeg9iKufk7sxJcf7Y31RqRnHgXF21Boel1vQTU2vwCV8sA4YhYBgahsCuXA1nwvNyKneLc8jeptOS/djoil5r+uAYhQ8J74zD5+UO4GAYAoahYQjc1LYYhv8WA/HJdTW8a78zXm1KLaF3CSenD4hReM80OXjR/LeNOniDYQgYhoYh8GNdGabqNHp4nWaO8IiLxV23Nb1XrzU4Pg6avxE+7dtGwTAEMAyBn8b362r08pzKWWGdibW46p24cXWanL5rag3m7iP8hzhoXu2wDYYhgGEI3BI7clU+G84Op8QZZR+Ta+E/fqJzwsaD0uTgYXG4fEOYccgGwxDAMARuC5fFMPyn+HND3Rsd6/7DBXofYWuwV+il1uCFcbD8vMM1GIYAhiGwRz5emlN5U4zEn69747n7D1eYYwvi8RMrwvExCH87DpQfDlsdrMEwBDAMgT1pe/hSTqM/q3uje2/ozvh46R1UZ2JqWXdi6pCqNXhKHCQH4UoHalhaw/C4OpW/n/9WMBcgwDAEFqJr47zykVyV5+RUWv1eWWWq3a73Eu5VTU7fLw6Qrw8XOkjDEhyGda+sCKfUvdHvxIvuR8NWFx/AMAQWqB/Uc/cfpvL0fMbmQ/rt2eVm254tTUy3U2vw8jg8/rsDNCzhYTjX3ItqvLjuV1fDKl5oXzT3kQ0XHsAwBBaw7+aqvLWuRr8Q3Hu4Z+4lvGuaHPyfODS+P1zj8AwNGIa763fGK3JvdGhO5WHxgvvmcIkLD2AYAgv4/sOvxrnlNf1qOGHK3Wb3Eh4Yg/AX4rB4bhiHnQ7O0LBheONArIar40V2fZ3KE+MF97ywzcUHMAyBBXv/YVU+nqvyB/3O+BDT7hbfR7g2tabPikPiOeGrYZsDMzR8GN54sOqVvere6MQYiL8ZL7ifceEBDENggdo1/0mnD8S55Un99uzept7Nr9uaPrbXGvxRHBA/E64OuxyWwTD8n+8etmeXxzjcP15kT8tV+fN4wd3s4gMYhsACdf0P7z8cTver4X1Nvp9c78SNc4+fqOefR3iZj42CYfj/H4id8cqcyiHxQvvAGImb4kX3OhcfwDAEFqi5b1n/WpxdXhYD8e4m4P/62OjqXmv6AXEg/PuwOWx3OAbD8KcqXlxXxTA8NPxSXQ0/Gy+6O1x8AMMQWIB2hqt/+How/LV+Z7zOJFy2rJqcbsVB8HXhe+4jBG7xMLzx0JXKmnzmxUflXvn9eMEdu/gAhiGwgAfiNeFf6jTzwH57dm1DHz+xLrUGzwjfioPgVvcRArfJMJy//3BZDMNV/V45KVfDqflvBXMBAgxDYKEOxM05lXNCK1dl7pNQS/njosvOPP5dc4+fWBtj8IFVa3DB/EdGDULgth2G/28bujP3q1P5ZLzobpn/djAXITAMDUNgIbowhuFzczW8a+6NVvY74yU1CtPE9LLO8RvXdk7YeHKMwmkHX+B2HYb/fSAbPit8a34guviAYWgYAgvVv+c0enw4vK5GK5fIR0bXpMnBnVJr+g/mHz3h0AvcMcNw/ltMj86p/MX8/YdbXXjAMDQMgYUoV8O5W2E2hjPr3uiADd2Z5YtxEHYmplZVrcHhVWvqyTEMv+6wCyyIYTj/DaYr554hFC+4g/mB6BtMwTA0DIGFORBTuaROo5fUqZzUT2Xffq8slnsJV1ST04ek1uD+MQzPcw8hsOCG4Y0HtF7ZN/xKvNB+OF54L3HxAcPQMAQW7juI5csxEn8tzi3H9+95+aoFfi/huu4J02fEMPyzONxd64ALLOhhOP8NpityZ3zXuho+L150vxCucvEBw9AwBBasVP4190YP71fDOy/A+wj3rVqDVvjd1Bp8NQ521zvcAotiGN7k3sM1uVfOyGn41/Gi+1VfUAOGoWEILOD7D6/MVfnrnMp9YiCuWwD3Ec59sczdYxBuCB/0LiGwaIfhTe4/PDBeZB9dpzL3/MPh/LOFXITAMDQMgYVmZ5xZLoqB+PvhjH579g75eGlqDQ4Pj4ph+NY4yF3iMAssiWF44+EtlWPCs8K/xAvvpS4+YBgahsACtS2G4Xv73Zmj7pCPj7amHhMHuM/42CiwJIfh/P2Hq3J3dGqMwxfEi+5/hOtcfMAwNAyBBegb/Wp4zztoGD4zDnAzDrHAkh2GN7n/cJ9cDR+Y4zA598Lr8RZgGBqGgGFoGAING4Y3uf/w0DqVX4gX38H84y12uRCBYWgYAoahYQg0aBj+98Fu2IqB+LTwgXgh3upiBIahYQgYhg6xQMOG4fz9h6tzKveKF+Ln5mr4Bd9eCoahYQgYhgANG4Y3DsReOTCG4Vl1Kq8Jl7gwgWFoGAKGIUDDhuGNh71euUvdGz22robvDr69FAxDwxAwDAGaNgxvePfwtEtXxyg8PqeyIV6gP+EiBYahYQgYhgANG4bzj7ZY3u/O7Bvj8NRclRfVqRQXKzAMDUPAMARo0DC8yaMtVuRqeFAMwxTeUlfDLS5aYBgahoBhCNCgYXiTew9X1t2ZI+o0eky8aH/QhQsMQ3//gGEI0LBhOP9oixiIo9W5N7pzTuXsePH+rgsYGIYAhiFAg4bhTe8/jGG4Ol64T6hTeW28iF/lQgaGIYBhCNCgYXiT+w+XxTBcHu5dV8Pz4sX8mrDLRQ0MQwDDEKAhw/D/+Zjp3rk7euL8YXGLgQiGIYBhCNCwYXjjQOyVu+Rq+NJ4Yf9m2GoggmEIYBgChmFD29CdOa1O5e/iBX4YtrvQgWEIYBgChmFDq6vh48IH4oV+s3cPwTAEMAwBw7Ch9Tvjw3Iq/yde7D8TrnDRA8MQwDAEDMOmDsRqeHKuhn8aL/pfnv+CGhdAMAwBDEPAMGzcR0t7ZVV4WJ3K2+LF/9sugGAYAhiGgGHYxHcO27PL85kXH1pXw35cAP55/v5DF0MwDAEMQ8AwbOC9hytzb3SPnIbPjQvBR8NVLohgGAKGoWEIGIbNvPdw75xKr07llfP3H+5wYQTDEDAMDUPAMGzi/YepHBoeG/4mLgzfd3EEwxAwDA1DwDBs5v2HK3N3tD6nkuPi8I8ebwGGIWAYGoaAYdjc+w/XxDg8NVfl7LhIfDJsc7EEwxAwDA1DwDBs5v2H+9eppLkDcF0Nvxt/Xu+iCYYhYBgahoBh2MT7D6vhnWMgPiyn8ndx0bjShRMMQ8AwNAwBw7Cp9x+mcmx4Sq6G5/t4KRiGgGFoGAKGYVMHYq/sHcPwhDqV54aL4iKyy4UUw9AwBAxDwxAwDJv48dJeWVd3Zk6vq+FfhatdTDEMDUPAMDQMAcOwmR8vXRGj8ODcG90/p/JeF1QMQ8MQMAwNQ8AwbO7jLVbFMDw8V8MNdSrfdmHFMDQMAcPQMAQMw2Y+2mJZDMPVMQzvEl5aV8NrXGAxDA1DwDA0DAHDsJn3Hi7L9/rB6ro7c0qMw7nHW+zwBTUYhoYhYBgahoBh2NyPmO6dU3l0rob/GRebLQYihqFhCBiGhiFgGDb3Y6aHxUB8dp3KN+Oic52BiGFoGAKGoWEIGIZN/ZhpKifW1fC1ceH5TtjqAoxhaBgChqFhCBiGTXz3sD27JndHD4qR+J64AF08fw+iizGGoWEIGIaGIWAYNm4g9sphuRr+elyEzg+Xh50uyBiGhiFgGAIYhg1sQ3fmhDqVF8fF6DPhGvcfYhgahoBhCGAYNvX+w2p4v/DGuCh93cdLMQwNQ8AwBDAMm/rx0s54XU7lCXFh2hSKdw8xDA1DwDAEMAybOhCr4d1yNXxmXKD+NVztQo1haBgChiGAYdjUj5f2yul1Gr00LlT/6WKNYWgYAoYhgGHYxHcO27PL8umX7FtXw4fGxeoN888/dOHGMDQMAcMQwDBs4L2Hy/vd0ZE5DX85LlrT4VIXbwxD/waAYQhgGDbz3sPVuRpO1Kk8Ky5eHw/bXMQxDAEMQwDDsIn3Hqayb6jCi8JXXMgxDAEMQwDDsJn3H67InZlDcyoPzlV5XVzMNrugYxgCGIYAhmEz7z9cFePw6FwNHxcXtH8M17qwYxgCGIYAhmEz7z9cW6dyXFzUzq6r4Rfjzx0u8BiGAIYhYBhaS028/7AaHlj3RqfmVF4RF7ixizyGIYBhCBiGaur9h73RQTEO75ur4ca40F3tYo9hCGAYAoahmjgQe2VVDMOD61R+OXzOx0sxDAEMQ8AwVFM/Xtorq/MZm+9cV8PnhbmPl+5y8ccwBDAMAcNQzft46dz9hyv73ZljcypvmH/30EDEMAQwDAHDUI0ditXwvnUqn4qL4BYDEcMQwDAEDEM19yOma8Kv1tXwIs8/xDAEMAwBw1DN/YjpinzmxUfHOHxJXBBHYZuDAYYhYBgahoBhqCYOxM54dU6ll6vhe+YHom8wxTAEDEPDEDAM1dB7Dw+IgfikOpXz4wL5g7DTQQHDEDAMDUPAMFQT7z9M5ZjwvLhIzn1BzRUOCxiGgGFoGAKGoZp5/+Hq3B2dFgPxL+Ji+dX5bzB1cMAwBAxDwxAwDNW4gdgrB+Zq+HNxwXx7+J77DzEMAcPQMAQMQzW0Dd2Zu9Rp7vEW5X3hUs8/NAwNQ8AwNAwBw1BNvf+wGrbDH8YF9BPhOgcJw9AwBAxDwxAwDNXEj5d2xvvlVO4fF9G/nL//0MdLDUPDEDAMDUPAMFQjB2I1PPKG+w9TeWvY7OOlhqFhCBiGhiFgGKqpHy/tlePq3uipcVF9r4OFYWgYAoahYQgYhmrqu4ft2TU33H/4w+cffskBwzA0DAHD0DAEDEM1897DZf3uzP45DR+QYzjERXbGQcMwNAwBw9AwBAxDNfPewxW5Gt6pTuXRcaF9T10NtzhwGIaGIWAYGoaAYagm3nuYyupwfN0bbYg/P+HQYRgahoBhaBgChqGaee/h8twZ75t7o1NyKs+PC+/3HD4MQ8MQMAwNQ8AwVDPvP1wRw/DAXA27dSpviAvwlQ4hhqFhCBiGhiFgGKqZ9x+ujIF4UF0NHxs+HhfibQ4jhqFhCBiGhiFgGKqJ9x9Ww9W5Mz4ip9Gz4mL8bQcSw9AwBAxDh1jAMFQz7z9clnujVf1euUeuhq+Oi/KlDiaGoWEIGIYAhqGa/C5ir5xVp/K++fsPdzqkGIaGIWAYAhiGaua7iPvW1fCXwgVxkb467HJYMQwNQ8AwBDAM1cSBeMP9hzc83uLCsNWBxTA0DAHDEMAwVFMHYjU8tU7lHXHBHvp4qWFoGAKGIYBhqGbff/jIuhp+LC7cY4cXw9DfP2AYAhiGaua9h8vy6ZfMPf/wGXHx/s9wlUOMYQhgGAIYhmrmvYcrcm90Qq6GfxkX8S+4/9AwBDAMAQxDNffew71yKg+oU/m7uJh/O1zvUGMYAhiGAIahmnjvYSqHhH54T1zURw42hiGAYQhgGKqZ9x+uzJ2Z43Iqz44L+9wX1FzpgGMYAhiGgGFoGKqJA7FX9snVMMXF/WV1Kp+PP7c56BiGAIYhYBhKDWxDd2bu46WPiIv8G8P33H9oGAIYhoBhKDX1/sNquD7UcbHfFGYdegxDAMMQMAylJn68tDOe+/bSU3JVfjd8Ii78Wxx+DEMAwxAwDKUmDsRquC5Xw06dyh+HC3281DAEMAwBw1Bq6sdLe+XIujd6aBwA3hy2OggZhgCGIWAYSk1897A9u6quhsfUafT4nIYfdRgyDAEMQ8AwlJo6EDvjtTEMj89V+e06lYscigxDwDA0DAHDUGriOKyGc/aPYXhKOKeuhtc6HBmGgGFoGAKGodTAYhQur3ujQ3N3dP+cynsdkAxDwDA0DAHDUGriu4ft2WX5zItX5d7o8BiHT8rV8GsOSoYhYBgahoBhKDVxIHbGy2IYropheHT8+Yd1Kpc5MBmGgGFoGAKGodTEgVgN5wbi8joOCuFdcWi4Kux0eDIMAcPQMAQMQ6mZHzNdk3ujR8bB4ePhWgPRMAQMQ8MQMAylpg7EXjk8V8P/EweIL4Trwi7D0DAEDEPDEDAMpQZW90r7h4+3KN8OWxs4EA1DwDA0DAHDUFK/PbtXjMOHzd9/OAw7DEPDEDAMDUPAMJSaOBA744NyKnUcKs4Plzfk3UPDEDAMDUPAMJT0vwZiNbxHncpL4nBxwfzHSw1DwxAwDA1DwDCUmljdK926Gr4lDhlfNgwNQ8AwNAwBw1Bq6ruH7dm9Yxw+Jg4am8IPDEPDEDAMDUPAMJSaOA4742X97syRuRr+Xhw43h+uMQwNQ8AwNAwBw1Bq4kCshqtiHJ5ap/LSOHj8Z9huGBqGgGFoGAKGodTAYhjuGx4a/nLuAGIYGoaAYWgYAoah1MR3D9uzK3Jn5oicyhPjELJxEd9/aBgChqFhCBiGkm7VQOyVNTkNW3UqvxE+FAeS6wxDwxAwDAEMQ6mBbejO7Ff3RveKA8kL62o493iLHYahYQgYhgCGodTAYhQeOnf/YU7lnDiczBiGhiFgGAIYhlITP17aGa+OYXh0rsoTczX8xzikXGkYGoaAYQhgGEpNHIjVcO8YhnevU3lm+OwCfbyFYQgYhoYhYBhK2uMDqFf2r7szp8Rh5SXhMsPQMAQMQwDDUGriu4ft2RV1NVyXe6NuTsNz4+CyzTA0DAHDEMAwlJo4EDvjlTEMD8rV8NF1Kp8zDB1iAcMQwDCUmjoQq+GqGIb7hz+sq+FVhiGAYQhgGEoNre7OrMxnbD4m98qb5p99uMswBDAMAQxDqZkfMV2Ve6MzczX8aBxqrr0dB6JhCBiGhiFgGEpaYB8x3S+n8kt1Kl++nQaiYQgYhoYhYBhKWpAfMa2G68OrwrfikLPFMAQwDAHDUFIT3z1sz67K3ZluHHLeEcoeesSFYQgYhoYhYBhKWvADsVcOzNXwCXHYOS/8IFxvGAIYhoBhKKmJHy/tlbvXqTwvDj2fCLO30f2HhiFgGBqGgGEoaZF9vHRNjMNOXQ3/LA4/nw/XGYYAhiFgGEpq4kDsjPfPqfxsHIDeFr53Kz5eahgChqFhCBiGkhb1QKyGd65TeXochP4hXHELPl5qGAKGoWEIGIaSlkJ1r0zGQPzDOBCdH3YYhoBhaBgChqGkJr572J5dW1fDXhyKXhkuMgwBw9AwBAxDSU0diJ3xAfOPt3jz/MdLDUPAMDQMAcNQUuPGYTWcc9c6lV+NQ9I/h62GIWAYGoaAYSipgcUwXBV+Jjw7XGAYAoahYQgYhpKa+O5he3Z5PvPiucdb3DdX5c/j0PR9wxAwDA1DwDCU1MSB2CsrcxreqU7l0WEqDk9XGYaAYWgYAoahpAa2oTuzpu6N1sfhKdfV8ImGIWAYGoaAYSipocUo3CccaBgChqFhCBiGkmQYAoahYQgYhpJkGAKGoWEIGIaSZBgChqFhCBiGkmQYAoahYQgYhpJkGAKGoWEIGIaSZBgChqFhCBiGkmQYAoahYQgYhpJkGAKGoWEIGIaSZBgChqFhCBiGkmQYAoahYQgYhpJkGAKGoWEIGIaSZBgChqFhCBiGkmQYAoahYQgYhpJkGAKGoWEIGIaSZBgChqFhCBiGkmQYAoahYQgYhpJkGAKGoWEIGIaSdJsMwzeH6xxiAcMQ4MdLranLexNT93J6lLQky6mclKvye7kazr1zeL3DLGAYAtxEa7Al/jw3huEvdCemDnB6lLRki8PbuhiG96pTeUUYO9AChiHA4L/S5OBjaWJ6Q2oNJsJKp0ZJzfhYaa8cUXdnHlRXw3c61AKGIdBgF8UQ/P1ea9A+4/iN+7TXb1rupCipWe8e3vPyVTEMj8lp9OSchhc43AKGIdAgV8QgfFO4b2pNretMTBmEkho8DjvjZf3uzF4xDCdyVZ5Tp/I9h1zAMASWsK3hQ9Xk1M/1WoPDu63pVU6EkrR7IFbD5bka7hfD8NTw2roa+vZSwDAElpqvptbg13onTB8dw3CNE6Ak/ZjqXlmROzMH5u7ooTEQP+TACxiGwBJwcdUavCJNTk/0JgZr3UcoSTfn3cP27LIYhytyd+aQnMqvxqHvQgdfwDAEFqFrU2vqfb2JqfvGMFzdO3GjQShJt6Tly1bMfcz0znUqfxKHv4s9/xAwDIEFble4Lobgf8QofEJ7/aZ95k40kqTbqBiH96qr4XQcAi8zEAHDEFiAtoULYxA+pzMxdZjTmyTtofrt2b1yb/SkOAh+IlwZdjoUg2FoGAJ3sOvDKE0O3lZNTJ3sxCZJt9dA7JWjcjV8XhwIPxeuCbscjsEwNAyBO8DmqjX4aG9i6iFOaJJ0B7WhO3NKnco5cTD8ZtjqgAyGoWEI3F4PqA9fqCanntpev2k/pzJJWgDV1fBR4T1xQPy+dw/BMDQMgT18H+GX0+TgFd3W1DGdiSkHMUlaSPU747nHWzw9DokfDZc6LINhaBgCt/F9hHNfLDNVTUzdO6x2+pKkhTwQq+FEroYvjMPip8N1Ds1gGBqGwK00qlqDf0ytwS+HA5y2JGmRVPfKinC/+fsPv+rgDIahYQjcwvsIz48xeHbnhI13ba/ftMIpS5IW2zuH7dnl+YzNB9XV8PFxcDw3jBygwTA0DIGbYWv4XNUavCK1pk7rTEytcbKSpMU+EDvjlbk3Wp/T8DfjAPkv4QoHaTAMDUPgx9xH+J1qcuqNvdbgEd3W9EFOUpK01AZiNdwrp3Jancrc/YefDdsdqMEwNAyBeZem1uBd4VdiGB7j5CRJS7wYhuvCw8NfxYHyQodqMAwNQ2i0a8LHq9bg93oTgxPb6zetclqSpKa8e9ieXZG7ozvnVB4Xh8rpcLnDNRiGhiE0yo7Umvp6ag3+OH6XUzUxtc4JSZKaOhA749UxDucebzH3/MOPhK0O2WAYGoawpO2qWoPN8ecbexODn+1NTB3pRCRJ+uFArIb71qncMw6YL66r4bfiz+sdtsEwNAxhydmeJgcfTK3B46vJqfU+NipJ+pHFKDy87o3uk1N5g4+XgmFoGMLSEYPw61Vr8Kz4c7IzMbXWqUeS9JPfPZy7/zCVufsPH5Or4dzjLbY4eINhaBjCItUaXJNaUy+LQXhKNTG1v5OOJOmnG4i9sjaG4TF1b/TUOpWvx+FzpwM4GIaGISwmU2/vTUzfrzcxdYiTjSTpVrWhO7N37oxbdTV8RZh1CAfD0DCEhf4u4dSXU2vqcWly6sh7HXfuqvb6TQ40kqTb4N3D9uzyGIX75d7o9JzKexzEwTA0DGEB3kfYmrokfi+fE9b3WlNrOhNTDjGSpD0wEDvjufsP98vV8HHh0w7kYBgahrAg7iO8Lvxtag1OinG4ppqYWu7UIknas+OwGs5ZXvfKgXUqz6mr4WUebwGGIXAHPI9w7iH1k4MPdCem73vase9eG8PQQUWSdAeMxPbsytwZHx/j8LVxOL0q7HBIB8MQ2OODcGv4YtUaPKN34kZfLCNJWiADsTNem3vlATkNz4tD6qx3EMEwBPbYIPxOak39abc1fZwTiCRpYQ7EanhITuVpdSqfnH8HcZdDOxiGwK22I5SqNZiuJqfOcuKQpMU9mg4Oq5rw3xrD8IS6Gr4yDqxfDdc6uINhCNwi14dLw/m91tST2us37eVEJUmLvFwNfzen8qA4wB069+UtS34It2fX5O7oPjES/zYOrt8N2xzgwTAEbvbHRq8KF8Tv2XOriam7O0lJ0lJ5F60qn45heGmuyktC1e+O923EO6Wd8f4xip8c//3/EC4OOx3kwTAEfuK7hHMPqP/r3sTUmU5QkrQEh+Hug1wMw6/VafSsuhpN9NuzqxsxEKvhXepUnh3//f/m/kMwDIEfqYT3VJNTj2yv37S305MkLfFhOG9uGL0rp/LL4a7N+XsY9ubvP/x82O5QD4YhMJgNH0iTg9/oTEx5/IQkNWwY3jAOczW8PP48J8bhI+Jwd1gj3j1sz66N/95HxX/334Tv+HgpGIbQUNvDJ2IQ/lE1MTUZljsxSVIzh+Fucw+G/1p4WV0Nz+p3xvs0YiD2yuExjPt1Khvjv/2K/9venYfPWdf3/uebhJCEgKzKIjSyyMw3oCMgmbnvj7ZVpFbrrhWq1bnvSHv0WD3ailZPrT3uy/l5tLZudf1ZZxKqcalVa9VKRVEr2LqhghXve2bCIiNLCCSQ67wnjf7s73jqwpbM/Xhc1/PKH+c6V3uHyczn1VluB3zJMJQa1Dfz9nD2PcJfi/Z2UgIwDH+yG6LzilQ/u8zHJzbl+4fre+Pjy2z0vLj2f4pudNCXDENpjrs8ek+Mwsevu+fGQzprNnmXEMAw/KndsuvXO99X5PX66KhGvHt48g9Wzt4tLfP65XHtX3XYlwxDac7aEn1k9u8mbw+O6bYGS52OAAzDn6fZD7NcGv1VkeqHxcHvoLkfh93JQr83PjjG8MPimt8W11459EuGoTQH3yP857w9fEEMwvuk1sBN6gEMw1/q0Lcl+pfof5bZ6OR+Z7ps7gdiqpZF9yhS9Ttx3X8b3eTwLxmG0h7Y92MQvi5vDR8Qfx7gNATArRmGP2papPofo3PKNDq6EX9nWb1PdO8yr/8wrv8LBoBkGEp7SFdHG/PF4eOy1vDunTWbljgJAXBbDcNZN0eTIq8/Umajs9b3xneZ+3cPO9OFuNa7xDjsxXW/Mq7/e4aAZBhKu2k35u3h+dFT4t/Hcdnajfs4AQFwewzDn/z+4feKVL+nyEen9LuT+f94aXeytPj321s8OK59dnuL6w0CyTCUdpNuTu3hpWlx8MK8PWj32htWO/kAcEcMw5+8vcV3yrx+aXHa5UfO3l2b+4GYquVxvXePnlym6oJdI9k4kGFoGEp3VtfEGHxr3h6mGIYHOvEAcGcMwx91TZGqf43D4VOjRtz7MIbhyrI3Pq7I6ufG9f+bcSDD0DCU7vBfG20PPhE9KobhId3WYJnTDgB39jCctWPnQMzrL8QhsdeEv9PZO6RFb7SqyEZrYxjPbm9xjZEgw9AwlG7vYgh+N28Nnhr/Bg5OrcFypxwAdqdh+KNuiX5Ypuot/e7kiEYMxO5kIYbhyvXZ+MFlXn/Ox0tlGBqG0u3X4NX3Pe7cu2cGIQC7+TD8yYF4VZlGz+ifctWBRV7P/fcP1/fGCzEMl8Uofnr03V2/4mo4yDA0DKVb047Zj8vki8OP9tqDe+ftwbLOmk0ONgDsMcPwxwOxSNXXYxg+Jto3DpBLG/EuYme6X1zvq+P6r462Gw8yDA1D6ZcYhFtjEH45HuuPTq2BW08AsEcPwx+1JYbSphiJ9y/zenW/O2nEzXb7Wb0Y17wprn/qHUQZhoah9HO2NbWH38tbg3Oyll8aBWC+huGPqmMYvqTIRyeV+XjfJtzioszqZdET47o/v2sg3mJMyDA0DKWf0k3RJG8P39o9YeNJnTWbljrBADCvw3DWtiLVXy7z0dOL3vi49b3x3H88ZucvmK7bfHiZqudFX/ELpjIMDUPpP9ygfnG4OR7TH8nbg4d0W4OVTi4ANGEY/qjry7z+QAzERxZ5fXg/q+f+Hkz97mRZkY3uFdf7urj+S6IbDQsZhoahGv09wmlaHHwuBuFTU2twiBMLAE0chj9qXKT6L2IkPrDsjQ9qwsdL4yC9Osbhw+Kaz43r/76Pl8owNAzVuLak9vCi6NUxDO/lpAKAYfj/9Y0YS88v8tFpZRqtasR/l6y+a4zDp8a1/0N0uZEhw9AwVCO+R3hJ9I6sNTy9s2aT+xECYBj+lGYfrTwvBuJ/icPmsdH8f7y0M11WZqN2XPefRF+IrjU2ZBgahpq7bpn9sEx0bjx2n5it3Xiw0wkAhuHP7poi1e+Kzuxn40P73cn8f7y0O1kZg/hX45pn3z+8ePYjPUaHDEPDUHPxPcJro09l7eFzeu0NxziVAGAY/uLNvn/32jKvz+ifclUjfqUtDtmHxPWeGdf93tn3L33/UIahYag9+tdGv5zaw5elxUHWWbPJTeoBMAxvZV8q8vpFcQA9tTH/zfL6uOhp0Ud8vFSGoWGoPa7vRm/N24Pf7LYG+zuJAGAY3nZtLVL9sV3fPzy6Ee8edqZ7F1l9SozD55azez/6eKkMQ8NQu3s35u3h++PxeWZqDY50AgHAMLx92hGNor8uU/X4fnfSiP8rbFznqiJVp8dAnH2stt7192CUyDA0DLV79Y8xCp+TtQYnRg4fABiGd0Dbo29Gbyzz0f36nWkjvrexvjc+IobhI+K6N8Yw3mKUyDA0DLVb9K18cfiS2fcI73v8uas6azY5eABgGN7B3RCdX+T1C6N2c/57Vq0YiE+Ma/6sYSLD0DDRndbl0ZtjFD4kaw8P7rYGC04cABiGd16zX+28IvpokeqnxCH1iCb8N+2f/IPlMQxPiZ5bpOpbBooMQ+kOvEl9e/jxGIRn5e3h0ak1WOakAYBhuPt0U1RFG8q8fki/O1k99+Mwqxf6eX1ADMP7xTW/JfqBoSLDULr9ijH4law9fGbW2rA2RuFKJwwADMPd++Ol3ypS/edlGp3YiP++Wb207I2OLLPRo8pUfTjaarDIMJRu0ybxmHt1jMJTeq0N+3fWbPKxUQAMwz3k10uvK/L6KzGW/nB9b3zYvP837nemC0VvvE+Z1/eI6z67gf/NZRhKt0db8vZgYzzefi3+PKjbGixxqgDAMNwzv394TZHqf4yx9Oh+Vu879wOxO1kostHKuOYTYyS+Kq5/s/Eiw1D6hdue2sOL0uKgmA1C3yMEwDCcj26evYMYQ+lviu7kpH5nunTuB2KqlsQYXllmda/Mq/ft+g6mISPDUPrZbY4x+MJ19zz38BiGy50iADAM5/AdxCJVV8VB9sXRgdFCNN//7bN6objvFfvFKH5UXP8Xdn3M1mNBhqH0f3ZtPK7ela3d2I5huMz9CAEwDBtQkdejGIlnFanev9+dNOI7I3GdBxZ59Ydx/d+OtnscyDCUhjt2fY/wvF57w/2dGAAwDJs6EFN9QZGNTyvTaN/ZD7g0YiCm6p5lXr9z1/cPDUQZhmpqN6T28BtpcfC0zppNq50WADAMdXMMw1cVvfHaIp//H6j58eMirx9cpurjcf1X7PqhHo8FGYZqxg3q47GTtwev7rYGRzglAGAY6j/c4qJI1SiG4TOjNXHYbcSNi/ud6aoiq58S1//l2S+4ehzIMNQcd8vOQbg4/GBqDe6X3HoCAMNQ/0k3xTD8bIzEJ5SpOrrfnezdiIGY1Wviml8d1//16EaPAxmGmrMuT+3h+Xlr8LtZa7DSyQAAw1A/b9fEMHxvjMQzynx8tybc4mJmfW/cLfN6ENf/vV23+fBYkGGoPblrogvT4uCc7gkb795Zs8m7hAAYhvrFv3tYpPo7ZT56eZGN8hiJBzTj8VIti54cfSj+DiYeBzIMtYd+j/Ab+eLw9Vl7eHK3NdjbaQAAw9AwvLVtjVF4QYzEZ0eL/axeMe+PmdkvtBbrNt81rvucuP7zo6s9DmQYag/o5uiyvD3YED0ytQb7OwUAgGF4W3d1DMP3l3n9pDIbHR3jae4/khSH/n2idUWqXh7Xf9FsJHscyDDUbtqVeXv4kehp0d29+gOAYXh79/0Yh28s8vrhZRod3IjHUFbvHz0srvutcf3fdv9DGYbajdoSfS5fHD6/19pwUmfNpmVe+QHAMLyj2hZ9Ncbhy8tslK/vjVfN++No9g5pXOvdy1Q9Ka79b6IrPQ4MQ8NQd2LbYwx+K/pf8Xj49a5fGwUAw/BObEuZ1/9YpPqcIhsd0+9O5v7XS+MalxdZfWKRqufE9X8mut7jwDA0DHUH34/w8ug9eXvw2F57w2Fe6QHAMNxduiJ63+z7h8Vplx80+/GWuR+IqdovrjePXrzr/odub2EYGoa6vbshbw8/GpVpcXCCV3gAMAx3175TpPqdcVh+aNSIex+WWX1ojMPfimv/y2jsMWAYGoa6nX5t9MJ8cXhO3h6c0lmzye0nAMAw3CO+f/gvRV6/IQ7NrSY8xvqd6dIYh0dHZ8Yw/vjOj9h6HBiGhqFug2IIbs7bO79HmLK1G91+AgAMwz3w+4epPq9M1bP63Ukjfr00rnOfIlUnxTj8rzESv+bjpYahYahfuvbOXxvd2GsNH561Bkd6NQcAw3BPbkc0iT5aptEj+51pI341b9f3D08uZ7/amqordv09eDwYhoahft53Cc/L28Mnp8XBcfe5h9tPAIBhOD/N7vt3aZGqvy7yel1jHnt5fWiZjVJc87vi+m/xODAMDUP9p4Nwcfj91B7+SQzDE3utwcpua+BFHAAMw7ls687vH6b6hXGgPrYJj7/Z/Q+LrD4sxuHjYhhf6DFgGBqG+ikfG5392uhbo3Xx3/aA1BosePUGAMNw3pu9c3Zt9Lkyr/v97uSARgzErF4ew/Do9dnoj+K6N3scGIaGoXb10aw1fGjvhA2HZq3BUq/aAGAYNq3ZD7P8oEj1B8p8fHq/M91n3h+L63vjWSviuo8vU/X26HqPA8PQMGxs383bg6dn7cHhvdaGZZ01m7xgA4Bh2PiBeHmZjV4bo+mYZjwmq4WiO1lV9MZZkdef9BgwDA3DRnVNDMLXpdbguPhzme8RAoBhqP+zS4tUP3P2nbyyN17a70zn9nE5u7YYh7NfMD2wSNVToot2/UiPXzA1DA3D+euW6LrUHn4gbw+7MQj3SgYhABiG+pl9vsxGD+v3xgfEwXtJIx6nWb2mzOtXRP8W13+TgWgYGoZz0Y7ohuiCXmv4uM6aTSu8KgOAYahfoCJVW6J3Fqk+NQ7fq6O5/5W+fme6PAZxr0zV7PYW413vIHo8GIaG4Z45CLdG34z/Vi/K1m50g3oAMAx1qwZiXl8Z4/CPo8V+Nl7R707m/jEb17hfXPfvxPV/Krp61/cwPR4MQ8Nwz2hbdFneHry9197Q8SoMAIahbtN3EOuvFfnod8u8vkf/5B8sa8JjN0bHUXG9z4vr/0J0nY+XGoaG4W7/LuE4tYcfTouDR3v1BQDDULdnef3BIhs9pMjruzXmMZzV9y7z6i/i+r8W3ehxYBgahrtd0+gLs9tPdNZsWuWVFwAMQ90x3z+8Nv58VYzDXhzMD2jC47jfma6IUfyguO5BVEe3eCwYhgbZnd7se4T/Gv89Xp5ag0WvuABgGOqO75YYhl8vUv3cMlUn97uTRvzaX1znATGMnx7X/5Hohx4HhqHulLZH38rbg3dkrcGDoiVebQHAMNSd2+yjlZ8s89HvRcf3O9OmfP/wmDKv/yyu/fxdt7fwWDAMdce0ObWH70uLgyecdvy5B3bWbFrwSgsAhqF2n64u0+idRTZ6bJHXRzTm8Z3X94teH9f/bY8Bw1C3a9dEn84Xh+dk7eEx3dZgqVdYADAMtXu2Lbo4+p9Fqh8Qh/YDm/AY759y1b4xhp8Q1/3eXfc/9FgwDHXbfmz0yzEIX5q3h+tSa+Am9QBgGGoP6fro89ELy2x0ryZ8vLSf1Uv6eb2mSNVTy7z+2123t/BYMAx16/pOag/fmLeGD81ag7t4RQUAw1B7ZldFHyxS/ftlGh3dhMf7+t54+fpsdJ8Yh38c1/4l3z80DPVL335iU/Q7WWt4ZGfNJh8bBQDDUHt4N0eXRe8ps9GjYjgd0IzHfbVfdEYMxNfGtV/icWAY6ufqxtQefjb+fp+ZtwcndluD5V5FAcAw1Pz9eunsBvGvL/I662f13H9PqN+dLC2y0ZFFqh9X/Pv9Dy/3ODAM9VO7OQbht/P28MUxCLupNVjt1RMADEPNd9fu/IhlXj+/6E6O6nemc3//sRgvK4pUHR/X/JToU3H9WzwODEP9uKtiEL4pb214UPx5V6+aAGAYqlltjrH0D3GwL6NVjfi3kNWry97O7x8+fzZqPAYMw4a3Nf4eP5Evbjgzaw+P8j1CADAM1ezvH1ZFXn84Dvgpmv93DzvTJTEMDyrz0f3iut8c13+lx4Fh2LBuyduDb+Xt4X+Nv8fjs7Ub3X4CAAxD6cf3P/xukeq397uTw5vw72Ln9w/z6m5Fqh4eQ/Fjcf03eBwYhnNfe/Zro4P/J4bhPXvtDb5HCACGofRTm42jb5dpdHa/M23EoTGGzfIYhodFRZmquPb6Fo8Dw3AeizH4waw9TDEMD/TKCACGofSz2hH9sEjVBUVe/0Zj/p1k9T5Fd3KPIqtfGdd/vceBYTg/7xIOLox+N4bhwd3WwPcIAcAwlH6hZu+c/SDG4SAO/yc14d9KvzNdKGYDsTduxTD+uHcPDcM9/B3CzdELo7ul1mBZ5AURAAxDh1jdqncQR2Ve//d+b3xEmY+XxoCa74HYnewVw3BJjJ5fj+u+JK5/u8eBYbin/LBMtC0tDt7WPWFD+9Rj/2ZZZhACAIahbsO2x1j6cpmP+sVplx9a5PWyRvz7yevZdxD/qExVFX8HN3kcGIa78SDcki8OP5W1h2d0WwO/NAoAGIa6Xbt+dnuL2fcPi1Tv38/qJtziYqFYt3lNXPPbd93eYpvHgWG4m7Qjuj4G4YV5e/i01Boc7FUPADAMdUc2jmH4mhhLJ5fZaPVsPM39QJx9/zCvTi9S9eG4/it23QfSMDQM78Qb1A8vjUH46qw1OMarHQBgGOrO7OtlPvqDIh/ds0yjRnx8bX1vfGCM4aeUeX1+XP/VDf6RGsPwzmlbNMoXh8Nea8Ovd9ZsWu6VDgAwDLU7dGP0yejMIq+PiLHQjO8fpuqY6KVx3V+JrjMMDcM74HuEV0Yfj+vvd1uD/bzCAQCGoXbHflik+i+jM4psdFC/O5n/j5d2JyvjWn81rv2t0XeirYahYXg7fI/w2ujzeXvwgtQaHOWVDQAwDLUn9N0yr18YdYvTLl8177e32DkQU3Vokaoz49o3RnVDbnFhGN4xHxv9emoPX5e3h6d5RQMADEPtif1Tkdd/EOPhpGihEf/esvqY6Flx7X8/ewfVMDQMb8XHRr8fvTdvDx7TWbPJ7ScAAMNQe25FqrYWqf5ADMTHx4g4vAn/5vqd6ezeh6fG9b88unDXdzANQ8Pw5+2afHH4objG38/WbjzMqxgAYBhqnpp9vPLPy1Q9pN+dNOJHM+I6Vxd59dC47jfu/Hjt/N3ewjC8bbspuiBvD/64197Q8uoFABiGmtdu2fULni8p0+i+s3fWGjEQU3V4mddPiP46rv0aw9Aw/Cl9I7WHr02Lg9OjBa9cAIBhqCZ0w+w7eEVenxPdszH/FrP6njEOnxl9Oq5/h2FoGM7uRxi9J28PHttrDQ7ttoxCAMAwVLOaDaMro2GR6rNiYDTiu1Szd0mLrO7t/NXWVF9qGDZ2GF6Xt4d/F9dRptbguGiZVysAwDBUk7tpNjCit8RYOr3fnezbiIHYG+9fpOq34rpfH00Nw0YNw3+OUfjcrDU4JfJrowCAYSj9RNdHXypS/bIyjU5sxDhM1ZIYh0fGIH58XPsHoq2G4VwPw8vyxeH/SouDX+u1NhzYWbPJx0YBAMNQ+r/8OM1V0afKbPS09b1xI25vEcNw76gdPS2u/SLDcO6G4TQapvbwkdni8PBua7DUKxMAYBhKP7vt0Sh6f5HXj+hn9dzf3qLfmS4UO29vUa/793dN68sMwz1+GG6PMfjFfHF4drQmtQb7eEUCAAxD6Rfvxp0DKa/fXvbGnRhPc/9OS4zgpUVeHRzX/IDo/43rv9Yw3COH4WVZe/gn2QkbTszbw9VeiQAAw1C69W0pUnVxjJAXRIc04d/t+t5477I7mX3/8Ellqv5p14/0GIa7/zC8Jv53e1eMwlN6reFdfI8QADAMpdv+9hbXFXl9UYyRR0dz/7G82cdLy2y0T5GNjp3d8zGu/xLDcLcdhtvy9uD8+N/rQdEB3dZgiVcfAMAwlG7fH6i5vkj1J/q98dp+dzL378jMrjGG4T6zEVak6k27fqDHMNw9huGO1B5WaXHwRzEM90t+WAYAMAylO/wdxG1lGr2kf8pVh8Rwmvt3aGKELcQwXFZm9QPLVJ2/G3y8tMnDcEe0Ncbgn59y7PsOjmFoEAIAhqF0ZxZj6coYhkW0OoZKIw7o/c503xiHT5qNs10DcYdheId0S7Ql/uf/XbZ241qvMACAYSjtXt0cw/CzMRJ/MwbTXfrdSTMGYndytyKvXhnX//074R3EJg3D2TuE1+ftwUW99oZHR94hBAAMQ2k37voYhu8qstGpZT7av9+ZNuJHQGKgdcq8Hsb1b971PUzD8LZrS2oPL06Lgxeedvy5R/ilUQDAMJT2lHcPU/WdMo1eUPTGa4u83rcx/97z+qwYxp+/g36gZt6H4dbo+3l78KasPeh0W4NlXlEAAMNQ2vO6MUbh54pUr4/WxIhZMe//3vud6V79U648sMjq58b1f2V2iw/D8Jf6HuEk/mecGz08tQZuUA8AGIbSHHR1DMON0WPKbHRYEz5e2u9OlvSz0QlFqv4yrv9rt9P3D+dxGF6V2sPP5q3hM7PW4G5eQQAAw1Cavy4r8/pVRT66f5lGBzbh3//sXdIir0+P696w8/pTfbNh+FO7ProoeknWHq7trNnkY6MAgGEozXHboguj55bZqLO+N17ZjOeB6q7RU+O6/za6wjD8cTdF34renC8OH9htDVZ61QAADEOpSb9emtd/F3+eXeSjX2nC7S36nenSojc+ocjrP4nr/mx0bYOH4ex7hJujjTEIz0qtwaFeLQAAw1BqbpPobTESH1l0JwfFeJr7WxH0s3pVkar7xXW/JvrXW/H9wz11GF6Xt4efiJ4dneBVAgAwDCX9qK8Vef2aGDoPiJY34blhfW98cJmNHhOj+N1x/d//Jb5/uKcNw23Rv+SLwxdl7eG6zppNy71CAACGoaT/fzcVqT4/BuKfxuBpRfP/7mFnuiyG4fFlqs6O6/9QNJ3DYbgjGqX28LXx/++h3dZgX68MAIBhKOlnNbv334djLP1evztpxq+XdiezXy+9TwzjP44+H9e/dS6GYXu4Jf78QN4ePD65/QQAYBg67Eu/1O0tUv3XZRo9uN+ZNuLXKmPoHVikKs1u6xHDeBTXv2MPHoYX5K0NZ6fFwUleCQAAw9AwlG5Nt0QXzW4UX+T1KY153sjqw2McPiqu/Z3/ybuHu+sw/E70p3l7kJ18j/f7HiEAgGEo3Ya3t/j37x++IMbQPZrw3LHz+4dxrWU+emKRV+f9lHcPd6thGEPw6uid8f/2oHxxw0HZ2o0LXgEAAAxD6fZ49/DK6KNlXp/V707u0oiB2J3sE8NwsUj1s+O6v7sbDsOt0Uez1vCsaE3WGiz1zA8AYBhKt3fbon+LofTuMh8/oN+Z7tOIgZiq/WMYnhy9uUzVlt1kGF6UtwdPj1rdEzas7KzZ5F1CAADDULrDmn2s8obo4iIbvXx9b3xsI55P8nqhzEZ3jWs+o8jr195ZwzBrDx+Xt4fnxEA8JWsPVndbA4MQAMAwlO7Uj5fObm/xxSLVv9fP6oPm/Tml35nuVZy2eVmR1QfEMLxTftwlhuGqGIark4+NAgAYhtJuNhBnP1Dz92U2mn28dG/PPgAAGIZSQwdikapp/PmuMo1OKPJ6oZ8qT0QAABiGUhOLUXhFkepnxVA8rMhGS/vdiSckAAAMQ6mRAzHV/1rko0eU+ejg4r5XLJ19Rw8AAAxDqYnl9blFb9wr8voukScnAAAMQ6mZ7x5W18Uo/B/R8f1U7esZCgAAw1Bq7vcPv1Gk+uwyVcf2u5PlnqkAADAMpWa2PYbhx8p89Ogyje7e70zdkw8AAMNQamjXxDD8iyIbPbDI60M9awEAYBhKDX33cPbx0vjzT4tUn9pP1f6evQAAMAylZnZ9DMNPx5/PLPN6sd+d7ONZDAAAw1BqZldGwxiJT5x9/9AzGQAAhqHUzG6OLoneUGajM9b3xgd4RgMAwDCUmtnWMq+/FH/O7n94335Wr/DMBgCAYSg1s2n0DzES/6DsjY/ud6ZLPMMBAGAYSs3s+0WqN/RTdaZfLwUAwDCUGnx7i+jiIq/fFuMwi/b2bAcAgGEoNfX7h6n+cpHq1/RnHy/tThY86wEAYBhKzeyH0QVlGvX7nem+nvkAADAMpeZWF6n6WJHXD/TsBwCAYSg1+/uH341x+JZ+qtZ6FgQAwDCUmtmO6Ibo62VeP6vfnRzi2RAAwDB0UJaa2S3RNUWqPlPm48f2O9OVnhUBAAxDSc0diFcXeb0xWueZEQDAMJTU7MZFql9aZPWaMhst7XemnigBAAxDSQ3t6zEMy6I7ObRMo2WeLQEADENJzezG6O9jGP5mjMQD1vfGSz1rAgAYhpKa2bTMR2+MukU+2q/fnSx49gQAMAwlNbNLirx+VpnX7WLd5hW+fwgAYBhKam6fKrLRE/p5fUw/VT5eCgBgGEpqYkWqbojeW+T1b8Q4PDTyhAoAYBhKauRAzOvvF6l+WZmqvN+drPKsCgBgGEpqbv9c5qP/VqbRif3OdG/PrgAAhqGkZrYtel+R10+J1niGBQAwDCU1sx3RFdErPMMCABiGkhr+0VLPsAAAhqEkwxAAAMNQkmEIAIBhKMkwBADAMJRkGAIAYBhKMgwBADAMJRmGAAAYhpIMQwAADENJhiEAAIahJMMQAADDUJJhCACAYSjJMAQAwDCUZBgCAGAYSjIMAQAwDCUZhgAAGIaSDEMAAAxDSYYhAACGoSTDEAAAw1CSYQgAgGEoyTAEAMAwlGQYAgBgGEoyDAEAMAwlGYYAABiGkgxDAAAMQ0mGIQAAhqEkwxAAAMNQkmEIAIBhKMkwBADAMJRkGAIAYBhKMgwBADAMJRmGAAAYhpIMQwAADENJhiEAAIahJMMQAADDUJJhCACAYSjJMAQAwDCUZBgCAGAYSjIMAQAwDCUZhgAAGIaSDEMAAAxDSYYhAACGoSTDEAAAw1CSYQgAgGEoyTAEAMAwlGQYAgBgGEoyDAEAMAwlGYYAABiGkgxDAAAMQ0mGIQAAhqEkwxAAAMNQkmEIAIBhKMkwBADAMJRkGAIAYBhKMgwBADAMJRmGAAAYhpIMQwAADENJhiEAgGFoGEoyDAEADEMHWEmGIQCAYegQK8kwBAAwDCXJMAQAMAwlyTAEADAMJckwBAAwDCXJMAQAMAwlyTAEADAMJckwBAAwDCXJMAQAMAwlyTAEADAMJckwBAAwDCXJMAQAMAwlyTAEADAMJckwBAAwDCXJMAQAMAwlyTAEADAMJckwBAAwDCXJMAQAMAwlyTAEADAMJckwBAAwDCXJMAQAMAwlyTAEADAMJckwBAAwDCXJMAQAMAwlyTAEADAMJckwBAAwDCXJMAQAMAwlyTAEADAMJRmGnmEBAAxDSYYhAACGoSTDEAAAw1CSYQgAgGEoyTAEAMAwlGQYAgBgGEoyDAEAMAwlGYYAABiGkgxDAAAMQ0mGIQAAhqEkwxAAAMNQkmEIAIBhKMkwBADAMJRkGAIAYBhKMgwBADAMJRmGAAAYhpIMQwAADENJhiEAAIahJMMQAADDUJJhCACAYSjJMAQAwDCUZBgCAGAYSjIMAQAwDCUZhgAAGIaSDEMAAAxDSYYhAACGoSTDEAAAw1CSYQgAgGEoyTAEAMAwlGQYAgBgGEoyDAEAMAwlGYYAABiGkgxDAAAMQ0mGIQAAhqEkwxAAAMNQkmEIAIBhKMkwBADAMJRkGAIAYBhKMgwBADAMJRmGAAAYhpIMQwAADENJhiEAAIahJMMQAADDUJJhCACAYSjJMAQAwDCUZBgCAGAYSjIMAQAwDCUZhgAAGIaSDEMAAAxDSYYhAACGoSTDEAAAw1CSYQgAgGEoyTAEAMAwlGQYAgBgGEoyDAEAMAwlGYYAABiGkgxDAADD0DCUZBgCABiGDrCSDEMAAMPQIVaSYQgAYBhKkmEIAGAYSpJhCABgGEqSYQgAYBhKkmEIAGAYSpJhCABgGEqSYQgAYBhKkmEIAGAYSpJhCABgGEqSYQgAYBhKkmEIAGAYSpJhCABgGEqSYQgAYBhKkmEIAGAYSpJhCAAwZ8Mwrz8UB7htDrGSDEMAgOYOwxOjl5epujwOcjscZiUZhgAAzRyHh5bZ6H5FXr8rDnM3O9BKMgwBABqo35kuLbL6sCIfPbhI1YUOtZIMQwCApg7E7mTvGIZHr89Gf1Tm9WaHW0mGIQBAA63vjWetjIPdPctUvT263iFXkmEIANBAMQgXit54VZQVef1JB11JhiEAQAP1O9O9iu5kr36qDipSdXb0lTjwbfcLppIMQwCAhiqz+lfKvH5F9L04+N1kIEoyDAEAGqjfmS4vs1GvTNW74/A32fUOooOwJMMQAKBxA7E72a/I69+JA+CnoqvdA1GSYQgA0NSBmKqjyrx+XhwEvxhd5+OlkgxDAICGKrP63mVe/UUcCC/e9f1Dh2PJMAQAoGn6nemKIqsfHofCjVHt46WSYQgAQFMHYndyYJGqp8fh8O+iqY+XSoYhAABNHYipOqbM6/8Rh8TzfbxUMgwBAGiwGIf3i/48DovfdmCWDEMAABqqf8pV+xZ5/YQ4ML43Gjs4S4YhAABNHIdZvaSf12uKVD2tzOuP7Lq9hUO0ZBgCANA063vj5WVvfEqMwxfFAfJLvn8oGYYAADRQvzNdKHrjg8pUnRED8bVxkLzEYVoyDAEAaOJA7E6WFtnoyCLVvx2HyXN33d7CwVoyDAEAaNxATNWKIq9bZV7/fhwqPxttc7iWDEMAABqozOrVZTY6NQbif4/D5bccsCXDEACABup3pktiGB4U3b/I6zfHIfNKB23JMAQAoIkDsTtZVuTV3YpUPTxG4mf8eqlkGAIA0NSBmKrlMQyPiJ5epmr266W3OHhLhiEAAA0Uw3Bl0Z0cU2T1K+PgeZ3Dt2QYAgDQQDvvf5jVs18wXVek6u+9eygZhgAANHUgZvVCDMOl63vjR5Z5fWkcRG92GJcMQwAAGqqcfQcxVX8W1e5/KBmGAAA01M6PmK7bvKbI63fEofQHBqJkGAIA0NSBmKpV0cOLVP3troHoI6aSYQgAQBOVWX1I9Iwyry+IQ+oPHdQlwxAAgAbqd6bLymy0GIfUV0XfirY4sEuGIQAATRyI3cnKIqtPL1L97jiwfje6ycFdMgwBAGjiQEzVoWVePykOrR+OrnAPRMkwBACgoWIctqIXxOH1vOhah3jJMAQAoIH6nenyojfKYiC+Og6xX/XxUskwBACgqQOxO1ldpOpRcZB9S1T5eKlkGAIA0NSBmKrDy7wu40D7ER8vlQxDAAAarEzVyTEQnxUH289HOxzwJcMQAIAG2vn9w7z+1TjcviK61CFfMgwBAGjqQMzqg4tUPbzM6/fEQXfqsC8ZhgAANFCZ1Uuie5bZqCxT9fE48G516JcMQwAAGqbfmS4U6zavimHYKfL6nDj0ftPBXzIMAQBo4kDsTpYUWX1Akar7x8H39dHlBoBkGAIA0MSBmKplRV7ftczrh0Sb4hB8oyEgGYYAADRQmdXLy97o6BiHT46D8BeMAckwBACggWbfPyyz0YoiGx1XpPplcSDebBRIhiEAAE0ciN3JQpHXK4tUnVLm9cY4GG8xDmQYAgBAEwdiqhZiGO4dPaJM1RfjgLzNSJBhCAAATR2Jnem+RV4/Jw7J3zMQZRgCAECTB2JWH1Ok6o1xWB5H240GGYYAANBQ63vjVOb1x+LQfGV0i/EgwxAAABqo35muLlN1dvSlODxPDQgZhgAA0MRx2J3s1e+Njyry+sVxgP5mdJ0hIcMQAACaOBBTtSzKi1S9KQ7Sl0Q3GxQyDAEAoIHKrN63zOszy1R9JA7UlVEhwxAAABqo35kuKXrjo+JA/YzoM9HVxoUMQwAAaOJA7E6WF1l9nyJVL4vD9YXRjUaGDEMAAGjiQEzV/kVeP6TM67+KQ/alvn8owxAAABoqhuGR0ZOjjXHYvtzgkGEIAAAN1O9MlxW9UbvI62fHgfu86HrDQ4YhAAA0cSBm9eoiVanM65dEs/sfbjdAZBgCAEADre+ND41h+Btx+P6rMlWzj5fuMERkGAIAQAPFKDwmBuJjirz+kF8vlWEIAAANtfP7h3m9WKT6WUWqvuzdQxmGAADQ1IGYqrvEMLx3mdevjPx6qQxDAABoqjKrDy174weWqXqvcSLDEAAAGqjfme5VnHrlsjiYH1nkozOLvPqikSLDEAAAmjgQu5O9+r3RPjEMjy1SfU6Z15cZKzIMAQCgiQMxVQtFXq+IYbg2elOZqhuMFhmGAADQQGVWLxSnXb5v0RudEQPx04aLDEMAAGiwfneyusjr9XF4/0a0zS0uZBgCAEBTB2Kqjirz+hVxiK92DUSDRoYhAAA0UZmqX4veF4f5zdF2o0aGIQAANFC/M11RZKMnxoH+M9HV0S3GjQxDAABo4kDM6iOKVD0/DvYXRtf7/qEMQwAAaKgyq7tlXr85DvjfjG4ydGQYAgBAA/U705Vlqh4RbYyD/veMHRmGAADQ1IHYnRxc5PXZcdif3f/wh0aPDEMAAGjqQEzV2jKvXxqH/gvc3kKGIQAANFSZ1XtHD4iD/+z7h18zgGQYAgBAA/U704Vi3eaDylQ9LgbAMLrCEJJhCAAATRyI3cnSIq+PLVL1zBgCH4u2GEQyDAEAoIkDMVUrYiCeWub1i2IQfDnabhgZhv5lAABAA8UwPDA6I3pDDIPKODIMAQCABup3pkuKbHRUkddnFal+XwyEq40kwxAAAGjiQMzqFUWqWmVe/5foczEUbjSWDEMAAKCB1vfG+8UwvFcMhT8rU3Vp/Hmz0WQYAgAADRSj8JAir389eluMhmsMJ8MQAABooH53siyG4WFFqh9XpOofYjzcZEAZhgAAQBMHYqr2iWF4WJnXTy9TdYURZRgCAAANVc5+oGbd5mNjHL7GkDIMAQCAhup3pgvl7B3EbHRqke/8eKlRZRgCAACNG4fdyV793nj2EdPZLS4eW+b1V2NYbDeuDEMAAKChYhgeEr24TNXID9QYhgAAQEP1O9OlRXdyUpHX74iRcWW0zdgyDAEAgCYOxO5kRYzDh8bQ+ET0g+hmo8swBAAAGmh9b3xEmY2eHYPjS9E10Q7jyzAEAAAaqEzVvaPXxvCY/UDNDQaYYQgAADRQvzNdXmSjM2J8vDf6nh+oMQwBAICmDsRUHVGkqowR8uHoiugWg8wwBAAAGqjM6sXoBTFGzouu9f1DwxAAAGigfme6T5mqFL06RsnX/XqpYQgAADR1IHYn+xd59dgYJu+MxgaaYQgAADR1IKbqqDKv10cfjJFyo6FmGAIAAA1VZvW9Yhy+IPqisWYYAgAADdTvTPfqn3rFvkVWPzDGyuz7h5cZbYYhAADQxIHYnSwU2ejQIlWPidHyjuga480wBAAAmjgQU7WsyOt7lHn9lDJVs9tb3GTEGYYAAEADxShcFePw5Oi5MWK+acgZhgAAQAP1O9OFojc+sMjrXy1S/YYYMxODzjAEAACaOBCzelmRqruW+ei3dt3eYothZxgCAAANtL43Xl52J78S4/BpZaouinGz3cAzDAEAgIaZfbw0huHKIhudUOT1S3y81DAEAACaOhBnt7fI6xX9VGUxFD8cQ+cGY88wBAAAmjgQUzV7B3FZmdWPKFP1jRg824w+wxAAAGjqSOxM94tx+PQYPZsNRMMQAABo8kDsTo4s8uqtMX6ujG42Ag1DAACgieMwVQvR/cu8Pi9G0FXRLcagYQgAADTQ7BdMo6eWqfpSjKGrDULDEAAAaKB+Z7qkWLf56F23t/hmtMUwNAwBAIAmDsSsXlHk1f2LVL0jhtElDf+BGsMQAABorvW98YFlNjqrzOsPxEAaN/QHagxDAACAMlVroufESPp0A79/aBgCAADM9LuTFUU2Wlek+lUxli5q0PcPDUMAAID/MBBTdVCRqofGYHpzdGm03TAEAABooDKrjy6zUT+G08Y5/3ipYQgAAPB/0+9M9y7zem2Mpz+M/inaahgCAAA0cSB2J6uKvEpFql8cQ+riOfv1UsMQAADg5x6IqTqkzOvfiDH19jJV1xqGAAAADRXj8JjozCKvP2oYAgAANFS/M11WZPXaGIhPLVJ1sWEIAADQxHHYnezV7433jWG4buf3D/P6KsMQAACgiQMxVUtiHB4Uw/D0MlUfiLYahgAAAA0Ug3BZjMO7F9nozBhcXzQMAQAAGqjfme5V9Mb7FHl9fJGq58Xw+jfDEAAAoIkDMasXirxaUeb1faN3xwC7xjAEAABooHI2EE+9YnWMw4eVqfpkDLEbDUMAAICG6ncnBxR59YwYY7PbW2yLdhiGAAAATRyIqTquzOvXxSi7bNdANAwBAACaqMzqvEzVh2KcTaKbDUMAAIAG6nemq2Ic/nYMtPOjH94JHy81DAEAAHaLgdidHFqk6mUx1C6KthqGAAAATR2IqVpb5vW7YrB9O9puGAIAADRQDMOF6NFlqjbFcBsZhgAAAA3U70wXitMuP7jI62fHePt0dLVhCAAA0MSBmNXL+nl9UpGqF8eI+0J0g2EIAADQQOt741VlNjq9zOs3x5i7+Db8/qFhCAAAsKfod6ZLyt74iDJVT4xBN7iNvn9oGAIAAOxxA7E72bvIRicUqX5GDLtPRFPDEAAAoIkDMVWri1SdFuPuT6KvRjcbhgAAAA1UZvXBZV4/JEbeG6LaMAQAAGigfme6NMbhUdFvF3n9/hh81xiGAAAATRyI3cnyIq9aRap/P0biV36OXy81DAEAAOZyIKZqdQzDTvSSMlWTGIA7DEMAAIAGimF4SJmN8iKv3x4jcJthCAAA0ECz+x8WWX23IhudXqTqS4YhAABAUwdid7IshuGR67PRfyvzemIYAgAANND63njWihiG9yhT9dboM/5WAAAAGigG4ULRG68s7nvFof42gHn0vwH5GoeWLH8UagAAACV0RVh0ZGF0ZTpjcmVhdGUAMjAyMi0xMC0yOVQxNTozOTozOSswMDowMLAsV7MAAAAldEVYdGRhdGU6bW9kaWZ5ADIwMjItMTAtMjlUMTU6Mzk6MzkrMDA6MDDBce8PAAAAAElFTkSuQmCC;" vertex="1" parent="1">
          <mxGeometry x="890" y="-395" width="61.66" height="70" as="geometry" />
        </mxCell>
        <mxCell id="ggcAxKrhVkJov2pQKjYs-55" style="edgeStyle=orthogonalEdgeStyle;rounded=0;orthogonalLoop=1;jettySize=auto;html=1;" edge="1" parent="1" source="ggcAxKrhVkJov2pQKjYs-30" target="ggcAxKrhVkJov2pQKjYs-52">
          <mxGeometry relative="1" as="geometry">
            <Array as="points">
              <mxPoint x="440" y="-94" />
              <mxPoint x="440" y="-94" />
            </Array>
          </mxGeometry>
        </mxCell>
        <mxCell id="ggcAxKrhVkJov2pQKjYs-30" value="" style="image;aspect=fixed;html=1;points=[];align=center;fontSize=12;image=img/lib/azure2/compute/Virtual_Machine.svg;" vertex="1" parent="1">
          <mxGeometry x="644.6700000000001" y="-230" width="56.33" height="52.25" as="geometry" />
        </mxCell>
        <mxCell id="ggcAxKrhVkJov2pQKjYs-40" value="" style="image;aspect=fixed;html=1;points=[];align=center;fontSize=12;image=img/lib/azure2/networking/Virtual_Networks.svg;direction=west;" vertex="1" parent="1">
          <mxGeometry x="710" y="-230" width="46" height="27.46" as="geometry" />
        </mxCell>
        <mxCell id="ggcAxKrhVkJov2pQKjYs-43" value="" style="image;aspect=fixed;html=1;points=[];align=center;fontSize=12;image=img/lib/azure2/networking/Network_Security_Groups.svg;" vertex="1" parent="1">
          <mxGeometry x="690" y="-170" width="30.06" height="36.5" as="geometry" />
        </mxCell>
        <mxCell id="ggcAxKrhVkJov2pQKjYs-44" value="" style="image;aspect=fixed;html=1;points=[];align=center;fontSize=12;image=img/lib/azure2/compute/Disks.svg;" vertex="1" parent="1">
          <mxGeometry x="625.1400000000002" y="-170" width="34.86" height="34.25" as="geometry" />
        </mxCell>
        <mxCell id="ggcAxKrhVkJov2pQKjYs-50" value="" style="image;aspect=fixed;html=1;points=[];align=center;fontSize=12;image=img/lib/azure2/networking/Network_Interfaces.svg;" vertex="1" parent="1">
          <mxGeometry x="595.23" y="-230" width="41.1" height="36.27" as="geometry" />
        </mxCell>
        <mxCell id="ggcAxKrhVkJov2pQKjYs-52" value="" style="image;sketch=0;aspect=fixed;html=1;points=[];align=center;fontSize=12;image=img/lib/mscae/Azure_Boards.svg;" vertex="1" parent="1">
          <mxGeometry x="330" y="-117" width="54.25" height="54.25" as="geometry" />
        </mxCell>
        <mxCell id="ggcAxKrhVkJov2pQKjYs-56" value="" style="image;aspect=fixed;html=1;points=[];align=center;fontSize=12;image=img/lib/azure2/management_governance/Monitor.svg;" vertex="1" parent="1">
          <mxGeometry x="280" y="-112.5" width="42.5" height="42.5" as="geometry" />
        </mxCell>
      </root>
    </mxGraphModel>
  </diagram>
</mxfile>
